<?xml version="1.0" encoding="UTF-8"?>
<svg version="1.1" xmlns="http://www.w3.org/2000/svg" width="474" height="284">
<path d="M0 0 C156.42 0 312.84 0 474 0 C474 93.72 474 187.44 474 284 C317.58 284 161.16 284 0 284 C0 190.28 0 96.56 0 0 Z " fill="#FDFDFD" transform="translate(0,0)"/>
<path d="M0 0 C0.66 0 1.32 0 2 0 C2 10.23 2 20.46 2 31 C-1.3 31.391875 -4.6 31.78375 -8 32.1875 C-30.84042751 35.17514499 -53.53063415 44.1898244 -68 63 C-69.16015625 64.11955078 -69.16015625 64.11955078 -70.34375 65.26171875 C-81.17345944 76.4258751 -87.53589335 92.03907562 -91 107 C-91.66 107 -92.32 107 -93 107 C-93.33 113.27 -93.66 119.54 -94 126 C-104.23 126 -114.46 126 -125 126 C-125 85.41 -125 44.82 -125 3 C-84.08 3 -43.16 3 -1 3 C-0.67 2.01 -0.34 1.02 0 0 Z " fill="#01AAEA" transform="translate(160,77)"/>
<path d="M0 0 C0 10.56 0 21.12 0 32 C-4.62 32.66 -9.24 33.32 -14 34 C-27.1806373 37.43245763 -39.74473026 44.849059 -49 55 C-49.33 55.99 -49.66 56.98 -50 58 C-50.66 58 -51.32 58 -52 58 C-52.27972656 58.72960937 -52.55945313 59.45921875 -52.84765625 60.2109375 C-53.91190989 62.78679207 -55.12058214 65.17167639 -56.4375 67.625 C-60.43912639 75.55742754 -61.90009363 83.20074902 -63 92 C-73.23 92 -83.46 92 -94 92 C-94.98882873 69.85023643 -87.10618558 48.54785474 -72 32 C-71.34 32 -70.68 32 -70 32 C-69.67 31.01 -69.34 30.02 -69 29 C-68.34 29 -67.68 29 -67 29 C-66.65775391 28.14535156 -66.65775391 28.14535156 -66.30859375 27.2734375 C-61.59184512 19.07896674 -51.18479805 14.0861127 -43 10 C-42.33613281 9.63261719 -41.67226562 9.26523438 -40.98828125 8.88671875 C-28.27940311 1.986091 -14.24149982 0 0 0 Z " fill="#FAFDFC" transform="translate(162,108)"/>
<path d="M0 0 C0 10.56 0 21.12 0 32 C-10.56 32 -21.12 32 -32 32 C-32 42.23 -32 52.46 -32 63 C-42.23 63 -52.46 63 -63 63 C-63 50.17316879 -63 50.17316879 -60.875 43.9375 C-60.65416748 43.26138672 -60.43333496 42.58527344 -60.20581055 41.88867188 C-58.26176949 36.21410057 -55.83068287 30.67320842 -52 26 C-51.34 26 -50.68 26 -50 26 C-49.92265625 25.42765625 -49.8453125 24.8553125 -49.765625 24.265625 C-46.81177679 15.5246456 -33.67833192 9.00687451 -26 5 C-17.2655245 1.32791188 -9.45275234 0 0 0 Z " fill="#08AAE5" transform="translate(162,140)"/>
<path d="M0 0 C28.53846154 0 28.53846154 0 34.8125 5.4375 C38.7735147 10.07754579 39.43927069 13.51809248 39.32421875 19.52734375 C38.70229781 24.27042755 35.63829379 28.02321417 32 31 C31.34 31 30.68 31 30 31 C31.26992169 33.70876409 32.54090757 36.41702033 33.8125 39.125 C34.16892578 39.88554688 34.52535156 40.64609375 34.89257812 41.4296875 C36.47149486 44.79031762 38.06482245 48.12619537 39.76171875 51.4296875 C41 54 41 54 41 56 C36.71 56 32.42 56 28 56 C27.443125 54.55625 26.88625 53.1125 26.3125 51.625 C24.45178214 46.94319378 22.29502163 42.48931829 19.953125 38.03125 C19 36 19 36 19 34 C16.36 34 13.72 34 11 34 C11 41.26 11 48.52 11 56 C7.37 56 3.74 56 0 56 C0 37.52 0 19.04 0 0 Z " fill="#3F3C3C" transform="translate(275,88)"/>
<path d="M0 0 C12.87 0 25.74 0 39 0 C39 3.3 39 6.6 39 10 C34.38 10 29.76 10 25 10 C25 25.18 25 40.36 25 56 C21.37 56 17.74 56 14 56 C14 40.82 14 25.64 14 10 C9.38 10 4.76 10 0 10 C0 6.7 0 3.4 0 0 Z " fill="#4C4949" transform="translate(227,88)"/>
<path d="M0 0 C28.28 0 28.28 0 33.9375 4.5625 C35 6 35 6 35 8 C34.01 8.66 33.02 9.32 32 10 C32 10.66 32 11.32 32 12 C30.68 12.33 29.36 12.66 28 13 C28.103125 14.051875 28.20625 15.10375 28.3125 16.1875 C28 20 28 20 26.3125 22.9375 C21.0151109 26.23587435 16.15499376 25.31085827 10 25 C10 20.71 10 16.42 10 12 C9.34 12 8.68 12 8 12 C8 11.01 8 10.02 8 9 C7.01 9 6.02 9 5 9 C5 8.34 5 7.68 5 7 C4.01 7 3.02 7 2 7 C2 21.52 2 36.04 2 51 C2.99 51.33 3.98 51.66 5 52 C3.68 52 2.36 52 1 52 C1 52.99 1 53.98 1 55 C3.97 55 6.94 55 10 55 C10 47.74 10 40.48 10 33 C12.97 33 15.94 33 19 33 C19 33.33 19 33.66 19 34 C16.36 34 13.72 34 11 34 C11 41.26 11 48.52 11 56 C7.37 56 3.74 56 0 56 C0 37.52 0 19.04 0 0 Z " fill="#4D4A4A" transform="translate(275,88)"/>
<path d="M0 0 C3.63 0 7.26 0 11 0 C11 18.48 11 36.96 11 56 C7.37 56 3.74 56 0 56 C0 37.52 0 19.04 0 0 Z " fill="#454140" transform="translate(325,88)"/>
<path d="M0 0 C2.8125 0.1875 2.8125 0.1875 5 1 C5 2.32 5 3.64 5 5 C4.01 5.33 3.02 5.66 2 6 C1.67 6.66 1.34 7.32 1 8 C1.99 8.33 2.98 8.66 4 9 C4 16.59 4 24.18 4 32 C1.6075 32.0825 -0.785 32.165 -3.25 32.25 C-3.99668945 32.28641602 -4.74337891 32.32283203 -5.51269531 32.36035156 C-8.94754381 32.41762983 -10.68755092 32.24034545 -13.4375 30.125 C-14.99124532 28.01190636 -15.63200847 26.5759407 -16 24 C-17.32 23.67 -18.64 23.34 -20 23 C-20.37239784 16.42097147 -20.37239784 16.42097147 -18.5625 14.375 C-18.046875 13.92125 -17.53125 13.4675 -17 13 C-16.39397335 10.63804589 -16.39397335 10.63804589 -16 8 C-15.35610218 5.99255385 -14.69437747 3.99054876 -14 2 C-13.34 2.33 -12.68 2.66 -12 3 C-12 3.66 -12 4.32 -12 5 C-8.71000718 5.41831404 -8.71000718 5.41831404 -5 5 C-3.31337542 3.35353315 -1.64488294 1.68816933 0 0 Z " fill="#01AAEC" transform="translate(124,168)"/>
<path d="M0 0 C3.3 0 6.6 0 10 0 C10 17.82 10 35.64 10 54 C6.7 54 3.4 54 0 54 C0 36.18 0 18.36 0 0 Z " fill="#403D3C" transform="translate(208,89)"/>
<path d="M0 0 C0.02886751 4.14581887 0.04675327 8.29161216 0.0625 12.4375 C0.07087891 13.62150391 0.07925781 14.80550781 0.08789062 16.02539062 C0.09272461 17.71245117 0.09272461 17.71245117 0.09765625 19.43359375 C0.10551147 20.99678345 0.10551147 20.99678345 0.11352539 22.59155273 C0 25 0 25 -1 26 C-2.48638992 26.15655027 -3.97949127 26.25066943 -5.47265625 26.31640625 C-6.37177734 26.35830078 -7.27089844 26.40019531 -8.19726562 26.44335938 C-9.14279297 26.48267578 -10.08832031 26.52199219 -11.0625 26.5625 C-12.01189453 26.60568359 -12.96128906 26.64886719 -13.93945312 26.69335938 C-16.29281353 26.79979276 -18.64628354 26.90181008 -21 27 C-20.01 26.67 -19.02 26.34 -18 26 C-18.33 25.01 -18.66 24.02 -19 23 C-19.99 22.67 -20.98 22.34 -22 22 C-22 21.01 -22 20.02 -22 19 C-22.66 19 -23.32 19 -24 19 C-23.45773019 15.20411134 -21.79872437 13.52788007 -19 11 C-21.97 10.505 -21.97 10.505 -25 10 C-25.33 8.68 -25.66 7.36 -26 6 C-21.545 5.505 -21.545 5.505 -17 5 C-16.67 3.68 -16.34 2.36 -16 1 C-10.58595744 0.22656535 -5.4683932 -0.04595288 0 0 Z " fill="#02AAEB" transform="translate(158,143)"/>
<path d="M0 0 C40.59 0 81.18 0 123 0 C123 0.33 123 0.66 123 1 C83.4 1 43.8 1 3 1 C3 39.94 3 78.88 3 119 C1.515 119.495 1.515 119.495 0 120 C0 80.4 0 40.8 0 0 Z " fill="#5BBEE5" transform="translate(35,80)"/>
<path d="M0 0 C0 0.66 0 1.32 0 2 C0.99 2 1.98 2 3 2 C3.042721 3.66611905 3.04063832 5.33382885 3 7 C2.67 7.33 2.34 7.66 2 8 C1.84174742 9.99782126 1.74880829 12.00088834 1.68359375 14.00390625 C1.64169922 15.21884766 1.59980469 16.43378906 1.55664062 17.68554688 C1.51732422 18.96494141 1.47800781 20.24433594 1.4375 21.5625 C1.37272461 23.48739258 1.37272461 23.48739258 1.30664062 25.45117188 C1.200152 28.63399853 1.09814038 31.81690674 1 35 C0.34 35 -0.32 35 -1 35 C-1 24.77 -1 14.54 -1 4 C-1.99 4.99 -2.98 5.98 -4 7 C-6.30569744 7.36914349 -6.30569744 7.36914349 -9.06828308 7.36076355 C-10.63950172 7.36694954 -10.63950172 7.36694954 -12.24246216 7.3732605 C-13.96552078 7.35708176 -13.96552078 7.35708176 -15.72338867 7.34057617 C-17.53820992 7.34123329 -17.53820992 7.34123329 -19.38969421 7.34190369 C-22.70781166 7.34017047 -26.02537069 7.32511487 -29.34338927 7.30418181 C-32.81072202 7.28544094 -36.27806204 7.28366663 -39.74543762 7.28010559 C-46.31152992 7.27077748 -52.87747255 7.24615343 -59.44349891 7.21605712 C-66.91861673 7.18253687 -74.39374166 7.1660331 -81.86891592 7.15097082 C-97.24603065 7.11960446 -112.62299603 7.06682919 -128 7 C-127.360625 6.896875 -126.72125 6.79375 -126.0625 6.6875 C-125.381875 6.460625 -124.70125 6.23375 -124 6 C-123.67 5.01 -123.34 4.02 -123 3 C-85.05 3 -47.1 3 -8 3 C-8 2.34 -8 1.68 -8 1 C-5.23735711 0.40267181 -2.83967231 0 0 0 Z " fill="#B6EAFD" transform="translate(163,73)"/>
<path d="M0 0 C0.99 0 1.98 0 3 0 C3 0.66 3 1.32 3 2 C4.65 1.67 6.3 1.34 8 1 C7.34 2.32 6.68 3.64 6 5 C6.66 5 7.32 5 8 5 C8 9.29 8 13.58 8 18 C12.95 18 17.9 18 23 18 C22.67 18.66 22.34 19.32 22 20 C20.04174127 20.02694851 18.08337774 20.04637218 16.125 20.0625 C14.48917969 20.07990234 14.48917969 20.07990234 12.8203125 20.09765625 C10 20 10 20 8 19 C8 19.66 8 20.32 8 21 C11.3 21 14.6 21 18 21 C18 21.33 18 21.66 18 22 C16.20841511 22.02696365 14.41671527 22.04637917 12.625 22.0625 C11.62726563 22.07410156 10.62953125 22.08570312 9.6015625 22.09765625 C7 22 7 22 5 21 C4.67 21.66 4.34 22.32 4 23 C9.61 23 15.22 23 21 23 C20.34 24.32 19.68 25.64 19 27 C15.37 26.67 11.74 26.34 8 26 C8 33.26 8 40.52 8 48 C5.03 48 2.06 48 -1 48 C-0.67 46.68 -0.34 45.36 0 44 C0.08361164 42.50413558 0.11783054 41.00502909 0.11352539 39.50683594 C0.11344986 38.62622498 0.11337433 37.74561401 0.11329651 36.83831787 C0.10813522 35.89651672 0.10297394 34.95471558 0.09765625 33.984375 C0.0962413 33.01340881 0.09482635 32.04244263 0.09336853 31.04205322 C0.08777663 27.94467065 0.07522559 24.84736068 0.0625 21.75 C0.05748395 19.64843854 0.05292123 17.54687596 0.04882812 15.4453125 C0.03780985 10.29684708 0.02055074 5.14843584 0 0 Z " fill="#3D3A39" transform="translate(277,95)"/>
<path d="M0 0 C0.66 0 1.32 0 2 0 C2 10.56 2 21.12 2 32 C-39.91 32 -81.82 32 -125 32 C-125 31.67 -125 31.34 -125 31 C-114.77 31 -104.54 31 -94 31 C-94.07904591 25.49516329 -94.07904591 25.49516329 -94.18017578 19.99072266 C-94.19473738 17.99296522 -94.09956726 15.99532783 -94 14 C-93.34 13.34 -92.68 12.68 -92 12 C-92 17.28 -92 22.56 -92 28 C-81.77 28 -71.54 28 -61 28 C-61 28.99 -61 29.98 -61 31 C-50.77 31 -40.54 31 -30 31 C-30 30.34 -30 29.68 -30 29 C-27.23382437 27.61691219 -24.98982 27.88789804 -21.8984375 27.90234375 C-20.68671875 27.90556641 -19.475 27.90878906 -18.2265625 27.91210938 C-16.95554687 27.92048828 -15.68453125 27.92886719 -14.375 27.9375 C-13.09625 27.94201172 -11.8175 27.94652344 -10.5 27.95117188 C-7.33328708 27.96298797 -4.16666644 27.97946185 -1 28 C-1.00523682 27.22285645 -1.01047363 26.44571289 -1.01586914 25.64501953 C-1.03660156 22.13835451 -1.04964821 18.63170237 -1.0625 15.125 C-1.07087891 13.90167969 -1.07925781 12.67835938 -1.08789062 11.41796875 C-1.09111328 10.25136719 -1.09433594 9.08476562 -1.09765625 7.8828125 C-1.10289307 6.80402832 -1.10812988 5.72524414 -1.11352539 4.61376953 C-1 2 -1 2 0 0 Z " fill="#8BC5D9" transform="translate(160,172)"/>
<path d="M0 0 C0.66 0 1.32 0 2 0 C2 10.23 2 20.46 2 31 C-1.361875 31.4125 -4.72375 31.825 -8.1875 32.25 C-16.01142629 33.2568571 -23.2116173 34.61378328 -30.63671875 37.328125 C-33 38 -33 38 -36 37 C-34.68 36.67 -33.36 36.34 -32 36 C-32 35.34 -32 34.68 -32 34 C-27.35333426 31.818912 -22.65191984 31.13759775 -17.625 30.375 C-16.8 30.2409375 -15.975 30.106875 -15.125 29.96875 C-10.25112987 29.21059242 -6.03732293 29 -1 29 C-1.33 21.08 -1.66 13.16 -2 5 C-3.64508545 5.32597168 -5.2901709 5.65194336 -6.98510742 5.98779297 C-17.67389683 7.62059121 -28.45266142 7.24626361 -39.23828125 7.1953125 C-41.57382587 7.19157614 -43.90937207 7.18873212 -46.24491882 7.18673706 C-52.35220774 7.17914966 -58.4593995 7.15954384 -64.56665039 7.1373291 C-70.81460252 7.11676457 -77.06257056 7.10771278 -83.31054688 7.09765625 C-95.54040695 7.0762928 -107.77019536 7.0422168 -120 7 C-120 11.29 -120 15.58 -120 20 C-120.33 20 -120.66 20 -121 20 C-121 14.72 -121 9.44 -121 4 C-118.77040024 3.99120064 -118.77040024 3.99120064 -116.49575806 3.98222351 C-102.51593595 3.92511265 -88.5362602 3.85259137 -74.55660439 3.76428509 C-67.36880583 3.71927937 -60.18105736 3.67987592 -52.99316406 3.65356445 C-46.72971461 3.63062283 -40.46642301 3.59726828 -34.20309865 3.55129844 C-30.88528813 3.52731388 -27.56766886 3.51017247 -24.24977493 3.50238609 C-20.54990369 3.49282041 -16.85060972 3.46485146 -13.15087891 3.43237305 C-12.04533157 3.43380814 -10.93978424 3.43524323 -9.80073547 3.4367218 C-8.79670181 3.42418365 -7.79266815 3.41164551 -6.75820923 3.39872742 C-5.88250589 3.39411845 -5.00680256 3.38950949 -4.10456276 3.38476086 C-3.41005705 3.25778977 -2.71555134 3.13081869 -2 3 C-1.34 2.01 -0.68 1.02 0 0 Z " fill="#07A5E0" transform="translate(160,77)"/>
<path d="M0 0 C0.66 0 1.32 0 2 0 C2 2.31 2 4.62 2 7 C2.66 7 3.32 7 4 7 C3.67 6.01 3.34 5.02 3 4 C6.625 1 6.625 1 10 1 C10 15.85 10 30.7 10 46 C6.7 46 3.4 46 0 46 C0 30.82 0 15.64 0 0 Z " fill="#3C3B39" transform="translate(242,97)"/>
<path d="M0 0 C1.93719378 -0.05406122 3.87481921 -0.09282025 5.8125 -0.125 C6.89144531 -0.14820313 7.97039062 -0.17140625 9.08203125 -0.1953125 C12 0 12 0 15 2 C14 4 14 4 13 5 C14.98 5 16.96 5 19 5 C19.33 5.66 19.66 6.32 20 7 C22.01669827 8.13350534 22.01669827 8.13350534 24 9 C24.53625 8.319375 25.0725 7.63875 25.625 6.9375 C28 5 28 5 31.25 5.25 C32.61125 5.62125 32.61125 5.62125 34 6 C34 6.99 34 7.98 34 9 C32.02 9 30.04 9 28 9 C27.67 10.98 27.34 12.96 27 15 C29.31 15 31.62 15 34 15 C34 15.99 34 16.98 34 18 C28.28341664 18.45732667 25.51350747 17.52273754 21 14 C20.67 15.32 20.34 16.64 20 18 C17.1875 18.25 17.1875 18.25 14 18 C11.73599988 15.73599988 11.01741456 14.05224368 10 11 C9.34 11 8.68 11 8 11 C8 13.31 8 15.62 8 18 C6.68 18 5.36 18 4 18 C4 13.05 4 8.1 4 3 C2.35 3 0.7 3 -1 3 C-0.67 2.01 -0.34 1.02 0 0 Z " fill="#DEDEDC" transform="translate(317,158)"/>
<path d="M0 0 C0.99 0 1.98 0 3 0 C3 1.65 3 3.3 3 5 C5.64 5 8.28 5 11 5 C11 8.96 11 12.92 11 17 C10.01 17 9.02 17 8 17 C8 13.7 8 10.4 8 7 C6.35 7 4.7 7 3 7 C3 9.97 3 12.94 3 16 C-0.96 16.33 -4.92 16.66 -9 17 C-9.33 16.01 -9.66 15.02 -10 14 C-11.32 14.33 -12.64 14.66 -14 15 C-14.33 14.01 -14.66 13.02 -15 12 C-14.34 12 -13.68 12 -13 12 C-13 11.34 -13 10.68 -13 10 C-13.99 10.33 -14.98 10.66 -16 11 C-16.33 12.98 -16.66 14.96 -17 17 C-18.32 17 -19.64 17 -21 17 C-21 12.71 -21 8.42 -21 4 C-14.33333333 4 -7.66666667 4 -1 4 C-0.67 2.68 -0.34 1.36 0 0 Z " fill="#E3E2E2" transform="translate(295,186)"/>
<path d="M0 0 C1.9375 0.0625 1.9375 0.0625 4 1 C5.25 4.0625 5.25 4.0625 6 7 C6.99 5.02 7.98 3.04 9 1 C9.66 1 10.32 1 11 1 C10.58273358 4.96403099 9.58080037 8.57230704 8.25 12.3125 C7.79367187 13.60607422 7.79367187 13.60607422 7.328125 14.92578125 C6 17 6 17 3.359375 17.79296875 C2.58078125 17.86128906 1.8021875 17.92960937 1 18 C1 17.34 1 16.68 1 16 C0.278125 16.33 -0.44375 16.66 -1.1875 17 C-4.01697427 18.00603529 -6.02895466 18.16977402 -9 18 C-9.33 17.34 -9.66 16.68 -10 16 C-8.35 15.67 -6.7 15.34 -5 15 C-5 14.34 -5 13.68 -5 13 C-6.65 13 -8.3 13 -10 13 C-11.1898306 10.6203388 -11.13349966 9.08514265 -11.125 6.4375 C-11.12886719 5.22900391 -11.12886719 5.22900391 -11.1328125 3.99609375 C-11 2 -11 2 -10 1 C-7.67164772 0.92835839 -5.3597039 1.0035518 -3.03125 1.0625 C-1.00390764 1.23224945 -1.00390764 1.23224945 0 0 Z " fill="#E8E7E8" transform="translate(425,163)"/>
<path d="M0 0 C13.34753802 -0.49435326 13.34753802 -0.49435326 16.41796875 1.83203125 C18 4 18 4 18.5625 6.9375 C18 10 18 10 16.3125 12.875 C11.02726848 16.26552588 6.18974771 15.31261352 0 15 C0 10.05 0 5.1 0 0 Z " fill="#EBEBEB" transform="translate(285,98)"/>
<path d="M0 0 C0 10.56 0 21.12 0 32 C-10.56 32 -21.12 32 -32 32 C-31.505 30.515 -31.505 30.515 -31 29 C-22.42 28.67 -13.84 28.34 -5 28 C-4.67 19.75 -4.34 11.5 -4 3 C-11.92 3.495 -11.92 3.495 -20 4 C-16.74247372 2.37123686 -14.59156744 1.55535436 -11.125 0.875 C-10.30257812 0.70742187 -9.48015625 0.53984375 -8.6328125 0.3671875 C-6 0 -6 0 0 0 Z " fill="#0A99CD" transform="translate(162,140)"/>
<path d="M0 0 C2.38202314 0.69717751 4.39796142 1.54747857 6.5625 2.75 C7.2225 2.09 7.8825 1.43 8.5625 0.75 C11.25089385 0.48008094 13.85391936 0.66262643 16.5625 0.75 C16.5625 1.41 16.5625 2.07 16.5625 2.75 C14.2525 2.75 11.9425 2.75 9.5625 2.75 C9.5625 3.41 9.5625 4.07 9.5625 4.75 C10.34625 4.70875 11.13 4.6675 11.9375 4.625 C14.5625 4.75 14.5625 4.75 16.5625 6.75 C16.00694444 11.30555556 16.00694444 11.30555556 14.5625 12.75 C11.57070277 12.90327434 8.61793676 12.98165249 5.625 13 C4.78775391 13.020625 3.95050781 13.04125 3.08789062 13.0625 C2.28673828 13.06765625 1.48558594 13.0728125 0.66015625 13.078125 C-0.44573853 13.09214355 -0.44573853 13.09214355 -1.57397461 13.10644531 C-2.18893799 12.98881836 -2.80390137 12.87119141 -3.4375 12.75 C-6.16036806 8.66569792 -5.82274534 6.60409123 -5.4375 1.75 C-2.4375 -0.25 -2.4375 -0.25 0 0 Z " fill="#E4E2E3" transform="translate(228.4375,190.25)"/>
<path d="M0 0 C0.66 0.33 1.32 0.66 2 1 C1.01 2.485 1.01 2.485 0 4 C-0.66 4 -1.32 4 -2 4 C-2 4.66 -2 5.32 -2 6 C-4.5 7.5 -4.5 7.5 -7 9 C-13.4167983 14.80567465 -15.83761386 20.56840283 -18 28.8125 C-18.33 29.864375 -18.66 30.91625 -19 32 C-19.99 32.495 -19.99 32.495 -21 33 C-21.40729228 35.32156597 -21.74438677 37.6568787 -22 40 C-21.38125 40.04125 -20.7625 40.0825 -20.125 40.125 C-19.073125 40.558125 -19.073125 40.558125 -18 41 C-17.29618843 42.98723268 -16.6288189 44.98777953 -16 47 C-15.01 47.33 -14.02 47.66 -13 48 C-13 48.33 -13 48.66 -13 49 C-15.14526099 49.19393875 -17.29123677 49.37998676 -19.4375 49.5625 C-21.22994141 49.71912109 -21.22994141 49.71912109 -23.05859375 49.87890625 C-24.02925781 49.91886719 -24.99992187 49.95882812 -26 50 C-27 49 -27 49 -27.1953125 45.4296875 C-27.13487068 41.05253009 -26.23215646 37.26613233 -24.875 33.125 C-24.65416748 32.43535156 -24.43333496 31.74570313 -24.20581055 31.03515625 C-22.2770336 25.29243254 -19.87199798 19.72361044 -16 15 C-15.34 15 -14.68 15 -14 15 C-13.93554688 14.43539062 -13.87109375 13.87078125 -13.8046875 13.2890625 C-12.66836003 10.05659699 -10.69709344 8.60414765 -8.125 6.375 C-7.24070312 5.59898437 -6.35640625 4.82296875 -5.4453125 4.0234375 C-3 2 -3 2 0 0 Z " fill="#0AA7E3" transform="translate(126,151)"/>
<path d="M0 0 C2.31 0 4.62 0 7 0 C6.01 0.66 5.02 1.32 4 2 C3.58748287 4.08236386 3.58748287 4.08236386 3.71948242 6.50976562 C3.73327438 7.44413452 3.74706635 8.37850342 3.76127625 9.34118652 C3.79235977 10.35265747 3.8234433 11.36412842 3.85546875 12.40625 C3.87716629 13.44189087 3.89886383 14.47753174 3.92121887 15.54455566 C3.9705561 17.73707365 4.02738211 19.92943381 4.09106445 22.12158203 C4.18709578 25.48583883 4.25652239 28.84987332 4.32226562 32.21484375 C4.37341771 34.34118449 4.4261006 36.46748906 4.48046875 38.59375 C4.51191231 40.11095642 4.51191231 40.11095642 4.54399109 41.65881348 C4.57354385 42.59318237 4.60309662 43.52755127 4.63354492 44.49023438 C4.65591721 45.31471069 4.67828949 46.13918701 4.70133972 46.98864746 C4.82959933 49.22665292 4.82959933 49.22665292 7 51 C5.02 51 3.04 51 1 51 C0.67 51.66 0.34 52.32 0 53 C0 35.51 0 18.02 0 0 Z " fill="#3B3636" transform="translate(209,90)"/>
<path d="M0 0 C0.66 0 1.32 0 2 0 C2 10.56 2 21.12 2 32 C-8.56 32 -19.12 32 -30 32 C-30 31.01 -30 30.02 -30 29 C-27.23382437 27.61691219 -24.98982 27.88789804 -21.8984375 27.90234375 C-20.68671875 27.90556641 -19.475 27.90878906 -18.2265625 27.91210938 C-16.95554688 27.92048828 -15.68453125 27.92886719 -14.375 27.9375 C-13.09625 27.94201172 -11.8175 27.94652344 -10.5 27.95117188 C-7.33328708 27.96298797 -4.16666644 27.97946185 -1 28 C-1.00785522 26.83428467 -1.00785522 26.83428467 -1.01586914 25.64501953 C-1.03660156 22.13835451 -1.04964821 18.63170237 -1.0625 15.125 C-1.07087891 13.90167969 -1.07925781 12.67835938 -1.08789062 11.41796875 C-1.09111328 10.25136719 -1.09433594 9.08476562 -1.09765625 7.8828125 C-1.10551147 6.26463623 -1.10551147 6.26463623 -1.11352539 4.61376953 C-1 2 -1 2 0 0 Z " fill="#D6D7D8" transform="translate(160,172)"/>
<path d="M0 0 C0.66 0 1.32 0 2 0 C2 10.23 2 20.46 2 31 C-1.361875 31.4125 -4.72375 31.825 -8.1875 32.25 C-16.01142629 33.2568571 -23.2116173 34.61378328 -30.63671875 37.328125 C-33 38 -33 38 -36 37 C-34.02 36.505 -34.02 36.505 -32 36 C-32 35.34 -32 34.68 -32 34 C-27.35333426 31.818912 -22.65191984 31.13759775 -17.625 30.375 C-16.8 30.2409375 -15.975 30.106875 -15.125 29.96875 C-10.35490918 29.22673587 -5.82615336 28.8569065 -1 29 C-1.00523682 28.15703369 -1.01047363 27.31406738 -1.01586914 26.44555664 C-1.03287826 23.32772064 -1.04543406 20.20990823 -1.05493164 17.09204102 C-1.05997057 15.74079614 -1.06680177 14.38955674 -1.07543945 13.03833008 C-1.08752419 11.09979566 -1.09269828 9.161222 -1.09765625 7.22265625 C-1.10289307 6.05484619 -1.10812988 4.88703613 -1.11352539 3.68383789 C-1 1 -1 1 0 0 Z " fill="#088DBB" transform="translate(160,77)"/>
<path d="M0 0 C3.3 0 6.6 0 10 0 C10 1.65 10 3.3 10 5 C10.66 5 11.32 5 12 5 C12 5.99 12 6.98 12 8 C11.34 8 10.68 8 10 8 C10 10.31 10 12.62 10 15 C10.66 15 11.32 15 12 15 C12 15.99 12 16.98 12 18 C10.35 18 8.7 18 7 18 C6.34 14.7 5.68 11.4 5 8 C4.67 11.3 4.34 14.6 4 18 C2.68 18 1.36 18 0 18 C0 13.38 0 8.76 0 4 C-0.66 4 -1.32 4 -2 4 C-1.34 2.68 -0.68 1.36 0 0 Z " fill="#D7D6D6" transform="translate(355,185)"/>
<path d="M0 0 C6 0 12 0 18 0 C18 0.99 18 1.98 18 3 C16.35 3.33 14.7 3.66 13 4 C12.67 5.98 12.34 7.96 12 10 C14.31 10 16.62 10 19 10 C18.67 10.99 18.34 11.98 18 13 C16.02 13 14.04 13 12 13 C11.67 12.01 11.34 11.02 11 10 C9.68 10.33 8.36 10.66 7 11 C6.67 10.01 6.34 9.02 6 8 C6.66 8 7.32 8 8 8 C8 7.34 8 6.68 8 6 C7.01 6.33 6.02 6.66 5 7 C4.67 8.98 4.34 10.96 4 13 C2.68 13 1.36 13 0 13 C0 8.71 0 4.42 0 0 Z " fill="#D9D7D8" transform="translate(274,190)"/>
<path d="M0 0 C0.9075 0.2475 1.815 0.495 2.75 0.75 C2.75 1.74 2.75 2.73 2.75 3.75 C0.77 3.75 -1.21 3.75 -3.25 3.75 C-3.58 5.73 -3.91 7.71 -4.25 9.75 C-1.94 9.75 0.37 9.75 2.75 9.75 C2.75 10.74 2.75 11.73 2.75 12.75 C-2.96658336 13.20732667 -5.73649253 12.27273754 -10.25 8.75 C-10.58 10.07 -10.91 11.39 -11.25 12.75 C-14.125 12.875 -14.125 12.875 -17.25 12.75 C-19.25 10.75 -19.25 10.75 -19.375 8.125 C-19.33375 7.34125 -19.2925 6.5575 -19.25 5.75 C-16.61 5.75 -13.97 5.75 -11.25 5.75 C-12.57 4.1 -13.89 2.45 -15.25 0.75 C-12.32120629 1.37759865 -9.88904371 2.33622659 -7.25 3.75 C-6.71375 3.069375 -6.1775 2.38875 -5.625 1.6875 C-3.25 -0.25 -3.25 -0.25 0 0 Z " fill="#C4C2C2" transform="translate(348.25,163.25)"/>
<path d="M0 0 C1.23556641 0.01740234 1.23556641 0.01740234 2.49609375 0.03515625 C3.32238281 0.04417969 4.14867187 0.05320313 5 0.0625 C5.63808594 0.07410156 6.27617187 0.08570313 6.93359375 0.09765625 C7.01456699 2.36790593 7.07277079 4.638977 7.12109375 6.91015625 C7.15589844 8.17472656 7.19070313 9.43929687 7.2265625 10.7421875 C6.93359375 14.09765625 6.93359375 14.09765625 5.58984375 16.03515625 C3.31768455 17.49276781 1.574291 17.31176684 -1.06640625 17.09765625 C-1.39640625 16.43765625 -1.72640625 15.77765625 -2.06640625 15.09765625 C-0.41640625 14.76765625 1.23359375 14.43765625 2.93359375 14.09765625 C2.93359375 13.43765625 2.93359375 12.77765625 2.93359375 12.09765625 C1.28359375 12.09765625 -0.36640625 12.09765625 -2.06640625 12.09765625 C-3.25623685 9.71799505 -3.19990591 8.1827989 -3.19140625 5.53515625 C-3.19527344 4.32666016 -3.19527344 4.32666016 -3.19921875 3.09375 C-3.01612713 0.34199068 -2.7572937 0.13030689 0 0 Z " fill="#585657" transform="translate(417.06640625,163.90234375)"/>
<path d="M0 0 C0.66 0 1.32 0 2 0 C2 5.94 2 11.88 2 18 C-0.64 18 -3.28 18 -6 18 C-8 16 -8 16 -8.23046875 13.87109375 C-8.21628906 13.06800781 -8.20210937 12.26492187 -8.1875 11.4375 C-8.18105469 10.63183594 -8.17460937 9.82617188 -8.16796875 8.99609375 C-8 7 -8 7 -7 6 C-5.00041636 5.95919217 -2.99954746 5.95745644 -1 6 C-1.020625 5.195625 -1.04125 4.39125 -1.0625 3.5625 C-1 1 -1 1 0 0 Z " fill="#504E4F" transform="translate(236,158)"/>
<path d="M0 0 C0.99 0 1.98 0 3 0 C3 5.94 3 11.88 3 18 C1.68 18 0.36 18 -1 18 C-1.33 14.7 -1.66 11.4 -2 8 C-3.65 8.33 -5.3 8.66 -7 9 C-7.33 11.97 -7.66 14.94 -8 18 C-8.99 18 -9.98 18 -11 18 C-11 13.71 -11 9.42 -11 5 C-5.555 4.505 -5.555 4.505 0 4 C0 2.68 0 1.36 0 0 Z " fill="#B2B1B1" transform="translate(286,158)"/>
<path d="M0 0 C0.99 0 1.98 0 3 0 C3.33 9.9 3.66 19.8 4 30 C-6.23 30 -16.46 30 -27 30 C-26.505 28.515 -26.505 28.515 -26 27 C-16.76 27 -7.52 27 2 27 C1.505 15.615 1.505 15.615 1 4 C0.34 3.67 -0.32 3.34 -1 3 C-0.67 2.01 -0.34 1.02 0 0 Z " fill="#0D8FBE" transform="translate(126,173)"/>
<path d="M0 0 C3.375 -0.1875 3.375 -0.1875 7 0 C9.20914 3.31371 9.22481553 4.3446021 9.125 8.1875 C9.10695313 9.08855469 9.08890625 9.98960937 9.0703125 10.91796875 C9.03550781 11.94857422 9.03550781 11.94857422 9 13 C7.54207116 13.05399736 6.08357288 13.09279177 4.625 13.125 C3.81289063 13.14820313 3.00078125 13.17140625 2.1640625 13.1953125 C0 13 0 13 -2 11 C-2.125 7.875 -2.125 7.875 -2 5 C-1.34 4.67 -0.68 4.34 0 4 C0 2.68 0 1.36 0 0 Z " fill="#4E4C4D" transform="translate(262,190)"/>
<path d="M0 0 C-0.33 0.99 -0.66 1.98 -1 3 C-5.455 3.495 -5.455 3.495 -10 4 C-9.67 5.32 -9.34 6.64 -9 8 C-6.03 8.495 -6.03 8.495 -3 9 C-4.36983503 12.16115776 -4.9890638 12.9927092 -8 15 C-10.19140625 15.23046875 -10.19140625 15.23046875 -12.5625 15.1875 C-13.34753906 15.18105469 -14.13257812 15.17460937 -14.94140625 15.16796875 C-17 15 -17 15 -19 14 C-18.42267934 10.65154016 -17.51363917 9.24432069 -15 7 C-14.236875 6.175 -13.47375 5.35 -12.6875 4.5 C-8.93516111 1.00945219 -5.1895858 -2.19559399 0 0 Z M-14 9 C-14.33 10.32 -14.66 11.64 -15 13 C-14.01 13.33 -13.02 13.66 -12 14 C-11.67 12.35 -11.34 10.7 -11 9 C-11.99 9 -12.98 9 -14 9 Z " fill="#05A8EE" transform="translate(142,145)"/>
<path d="M0 0 C3.3 0 6.6 0 10 0 C10 10.56 10 21.12 10 32 C4.06 32.495 4.06 32.495 -2 33 C0 31 0 31 6 30 C6.33 20.76 6.66 11.52 7 2 C4.69 1.67 2.38 1.34 0 1 C0 0.67 0 0.34 0 0 Z " fill="#CAD7DE" transform="translate(152,108)"/>
<path d="M0 0 C2.64 0 5.28 0 8 0 C7.67 0.66 7.34 1.32 7 2 C5.35 2 3.7 2 2 2 C2 3.65 2 5.3 2 7 C3.98 6.67 5.96 6.34 8 6 C8.33 4.35 8.66 2.7 9 1 C9.66 1.33 10.32 1.66 11 2 C11.07427838 5.34252724 11.06546953 7.8035914 10 11 C10.88319294 14.15020361 10.88319294 14.15020361 12 17 C10.125 16.8125 10.125 16.8125 8 16 C7.29788106 14.34795544 6.63028587 12.68076231 6 11 C5.01 10.67 4.02 10.34 3 10 C3 12.31 3 14.62 3 17 C2.01 17 1.02 17 0 17 C0 11.39 0 5.78 0 0 Z " fill="#383737" transform="translate(208,186)"/>
<path d="M0 0 C0.33 0 0.66 0 1 0 C1 3.63 1 7.26 1 11 C11.23 11 21.46 11 32 11 C32 11.99 32 12.98 32 14 C21.44 14 10.88 14 0 14 C0 9.38 0 4.76 0 0 Z " fill="#C6D1D4" transform="translate(67,189)"/>
<path d="M0 0 C3 0.25 3 0.25 5 2.25 C5.31537716 6.58643601 5.44897847 8.57653229 3 12.25 C0 12.5625 0 12.5625 -3 12.25 C-5 10.25 -5 10.25 -5.265625 8.375 C-5.26046875 7.67375 -5.2553125 6.9725 -5.25 6.25 C-5.25515625 5.54875 -5.2603125 4.8475 -5.265625 4.125 C-4.77431879 0.65695617 -3.28862917 0.27405243 0 0 Z " fill="#514F50" transform="translate(406,163.75)"/>
<path d="M0 0 C2 2 2 2 2.25 5.4375 C2 9 2 9 0 12 C-3 12.375 -3 12.375 -6 12 C-8.67927341 7.98108988 -8.15601248 5.75838077 -8 1 C-5.03104944 0.01034981 -3.0913386 -0.23779528 0 0 Z " fill="#403F3D" transform="translate(389,164)"/>
<path d="M0 0 C3.05001831 3.66002197 7 9.07851471 7 14 C2.71 14 -1.58 14 -6 14 C-6 12.35 -6 10.7 -6 9 C-5.01 9 -4.02 9 -3 9 C-2.87625 8.443125 -2.7525 7.88625 -2.625 7.3125 C-1.94023145 4.77885636 -1.00866237 2.42078968 0 0 Z " fill="#4F4B4A" transform="translate(309,130)"/>
<path d="M0 0 C4.49201278 -0.36421725 4.49201278 -0.36421725 6.65625 1.1875 C8.46278055 3.62421563 8.30430752 5.18944021 8.1875 8.1875 C8.16042969 9.08855469 8.13335937 9.98960937 8.10546875 10.91796875 C8.07066406 11.60503906 8.03585937 12.29210937 8 13 C6.52093108 13.02689216 5.04172517 13.04634621 3.5625 13.0625 C2.32693359 13.07990234 2.32693359 13.07990234 1.06640625 13.09765625 C-1 13 -1 13 -2 12 C-2.125 9.5 -2.125 9.5 -2 7 C-1 6 -1 6 2.0625 5.9375 C3.5165625 5.9684375 3.5165625 5.9684375 5 6 C5 5.01 5 4.02 5 3 C3.02 3 1.04 3 -1 3 C-0.67 2.01 -0.34 1.02 0 0 Z " fill="#3E3D3B" transform="translate(294,163)"/>
<path d="M0 0 C9.9 0.33 19.8 0.66 30 1 C30 1.99 30 2.98 30 4 C19.77 4 9.54 4 -1 4 C-0.67 2.68 -0.34 1.36 0 0 Z " fill="#128AB5" transform="translate(36,199)"/>
<path d="M0 0 C0 0.66 0 1.32 0 2 C0.99 2 1.98 2 3 2 C3.042721 3.66611905 3.04063832 5.33382885 3 7 C2.67 7.33 2.34 7.66 2 8 C1.84174742 9.99782126 1.74880829 12.00088834 1.68359375 14.00390625 C1.64169922 15.21884766 1.59980469 16.43378906 1.55664062 17.68554688 C1.51732422 18.96494141 1.47800781 20.24433594 1.4375 21.5625 C1.39431641 22.84576172 1.35113281 24.12902344 1.30664062 25.45117188 C1.200152 28.63399853 1.09814038 31.81690674 1 35 C0.34 35 -0.32 35 -1 35 C-1 24.44 -1 13.88 -1 3 C-2.98 3 -4.96 3 -7 3 C-7.33 2.34 -7.66 1.68 -8 1 C-5.23735711 0.40267181 -2.83967231 0 0 0 Z " fill="#D7F6FC" transform="translate(163,73)"/>
<path d="M0 0 C0 10.56 0 21.12 0 32 C-10.56 32 -21.12 32 -32 32 C-32 31.67 -32 31.34 -32 31 C-17.15 30.505 -17.15 30.505 -2 30 C-2 20.76 -2 11.52 -2 2 C-5.3 2 -8.6 2 -12 2 C-12 2.66 -12 3.32 -12 4 C-14.64 4 -17.28 4 -20 4 C-17.070678 2.39359761 -14.39950989 1.51766082 -11.125 0.875 C-10.30257812 0.70742187 -9.48015625 0.53984375 -8.6328125 0.3671875 C-6 0 -6 0 0 0 Z " fill="#3EA2C4" transform="translate(162,140)"/>
<path d="M0 0 C0 0.99 0 1.98 0 3 C-2.23046875 4.8671875 -2.23046875 4.8671875 -5.1875 6.875 C-9.88346251 10.13280831 -9.88346251 10.13280831 -14.0625 14 C-14.701875 14.66 -15.34125 15.32 -16 16 C-16.66 16 -17.32 16 -18 16 C-20.61046448 18.84777943 -22.42676569 21.13066838 -23 25 C-24.32 25 -25.64 25 -27 25 C-25.63055898 22.05043472 -24.12169591 19.47531189 -22 17 C-21.34 17 -20.68 17 -20 17 C-19.67 16.01 -19.34 15.02 -19 14 C-18.34 14 -17.68 14 -17 14 C-16.7834375 13.43667969 -16.566875 12.87335938 -16.34375 12.29296875 C-14.55165625 9.23494831 -12.26625009 7.51458067 -9.5 5.3125 C-8.5203125 4.52488281 -7.540625 3.73726563 -6.53125 2.92578125 C-2.68559838 0 -2.68559838 0 0 0 Z " fill="#D4F8FD" transform="translate(112,123)"/>
<path d="M0 0 C1.30195313 0.00322266 2.60390625 0.00644531 3.9453125 0.00976562 C5.32552149 0.01812159 6.70572982 0.02658654 8.0859375 0.03515625 C9.47395676 0.04017124 10.86197772 0.04473415 12.25 0.04882812 C15.65368882 0.06064649 19.05729189 0.07712191 22.4609375 0.09765625 C22.4609375 1.08765625 22.4609375 2.07765625 22.4609375 3.09765625 C12.2309375 3.09765625 2.0009375 3.09765625 -8.5390625 3.09765625 C-8.5390625 2.43765625 -8.5390625 1.77765625 -8.5390625 1.09765625 C-5.66887809 -0.33743596 -3.20362527 -0.01392881 0 0 Z " fill="#CBCDCE" transform="translate(138.5390625,199.90234375)"/>
<path d="M0 0 C2 2 2 2 2.125 4.625 C2.08375 5.40875 2.0425 6.1925 2 7 C-0.31 7 -2.62 7 -5 7 C-4.67 7.99 -4.34 8.98 -4 10 C-2.02 10 -0.04 10 2 10 C1.67 10.99 1.34 11.98 1 13 C-2.375 13.1875 -2.375 13.1875 -6 13 C-8.46324069 9.30513897 -8.38991688 7.36706908 -8 3 C-5.94362059 -0.35514536 -3.76397853 -0.48256135 0 0 Z " fill="#464445" transform="translate(399,190)"/>
<path d="M0 0 C2.4375 0.75 2.4375 0.75 4.4375 2.75 C4.4375 4.07 4.4375 5.39 4.4375 6.75 C1.7975 6.75 -0.8425 6.75 -3.5625 6.75 C-3.5625 7.74 -3.5625 8.73 -3.5625 9.75 C-1.2525 9.75 1.0575 9.75 3.4375 9.75 C3.4375 10.74 3.4375 11.73 3.4375 12.75 C0.0625 12.9375 0.0625 12.9375 -3.5625 12.75 C-6.28536806 8.66569792 -5.94774534 6.60409123 -5.5625 1.75 C-2.5625 -0.25 -2.5625 -0.25 0 0 Z " fill="#464445" transform="translate(228.5625,190.25)"/>
<path d="M0 0 C0.99 0.33 1.98 0.66 3 1 C2.20335937 1.67095703 2.20335937 1.67095703 1.390625 2.35546875 C-2.49795379 5.68346775 -5.88485161 8.91808142 -9 13 C-9.78375 13.7425 -10.5675 14.485 -11.375 15.25 C-14.79729211 18.83525841 -17.35303235 22.82488608 -20 27 C-20.61328125 25.203125 -20.61328125 25.203125 -21 23 C-19.1875 19.75 -19.1875 19.75 -17 17 C-16.34 17 -15.68 17 -15 17 C-14.896875 16.38125 -14.79375 15.7625 -14.6875 15.125 C-14 13 -14 13 -11 11 C-10.67 10.01 -10.34 9.02 -10 8 C-10.99 7.67 -11.98 7.34 -13 7 C-7.46357616 4.10596026 -7.46357616 4.10596026 -4.8125 3.5 C-2.5308803 2.87058767 -1.53143754 1.76115317 0 0 Z " fill="#15A8E2" transform="translate(101,127)"/>
<path d="M0 0 C2.57911047 1.28955523 2.88839849 2.37257826 4 5 C4.42151885 6.57158878 4.7968834 8.15629082 5.125 9.75 C5.29257813 10.54921875 5.46015625 11.3484375 5.6328125 12.171875 C5.81457031 13.07679688 5.81457031 13.07679688 6 14 C7.65 14.33 9.3 14.66 11 15 C11 15.33 11 15.66 11 16 C9.02 16.33 7.04 16.66 5 17 C4.67 17.99 4.34 18.98 4 20 C3.01 19.67 2.02 19.34 1 19 C1 18.01 1 17.02 1 16 C0.34 15.67 -0.32 15.34 -1 15 C-0.34 15 0.32 15 1 15 C0.195625 13.7934375 0.195625 13.7934375 -0.625 12.5625 C-2.45725994 7.81528105 -1.46242594 4.73447248 0 0 Z " fill="#E8E6E7" transform="translate(219,188)"/>
<path d="M0 0 C1.14339844 0.00902344 2.28679687 0.01804687 3.46484375 0.02734375 C4.32207031 0.03894531 5.17929688 0.05054687 6.0625 0.0625 C3.06733999 1.74538771 0.55016652 2.43173331 -2.8515625 2.84375 C-3.77710938 2.96363281 -4.70265625 3.08351563 -5.65625 3.20703125 C-7.60144757 3.44495192 -9.54676143 3.68192372 -11.4921875 3.91796875 C-12.87664062 4.09779297 -12.87664062 4.09779297 -14.2890625 4.28125 C-15.55484131 4.4349707 -15.55484131 4.4349707 -16.84619141 4.59179688 C-19.14477061 4.91338349 -19.14477061 4.91338349 -20.9375 7.0625 C-25.04020633 8.45587196 -28.59965737 9.32539955 -32.9375 9.0625 C-30.21364225 5.47957942 -26.31569957 4.65788016 -22.1875 3.4375 C-21.4965625 3.2209375 -20.805625 3.004375 -20.09375 2.78125 C-13.40237272 0.74365015 -7.00827107 -0.07225022 0 0 Z " fill="#D6FAFC" transform="translate(153.9375,108.9375)"/>
<path d="M0 0 C3.29714793 0.32971479 4.6226839 0.6226839 7 3 C7 4.32 7 5.64 7 7 C4.36 7 1.72 7 -1 7 C-1 7.99 -1 8.98 -1 10 C1.31 10 3.62 10 6 10 C6 10.99 6 11.98 6 13 C2.625 13.1875 2.625 13.1875 -1 13 C-3.1202151 9.81967735 -3.2495865 9.45432601 -2.75 5.9375 C-2.66234375 5.24527344 -2.5746875 4.55304688 -2.484375 3.83984375 C-2 2 -2 2 0 0 Z " fill="#515050" transform="translate(251,190)"/>
<path d="M0 0 C12.21 0 24.42 0 37 0 C37 1.32 37 2.64 37 4 C36.01 4 35.02 4 34 4 C34 3.34 34 2.68 34 2 C22.78 2 11.56 2 0 2 C0 1.34 0 0.68 0 0 Z " fill="#E7FEFC" transform="translate(96,204)"/>
<path d="M0 0 C3.3 0 6.6 0 10 0 C10 4.29 10 8.58 10 13 C9.34 13 8.68 13 8 13 C8 9.7 8 6.4 8 3 C6.35 3 4.7 3 3 3 C3 6.3 3 9.6 3 13 C2.01 13 1.02 13 0 13 C0 8.71 0 4.42 0 0 Z " fill="#666465" transform="translate(321,190)"/>
<path d="M0 0 C6.8359375 -0.1953125 6.8359375 -0.1953125 9 0 C11 2 11 2 11.1953125 4.3828125 C11.17210937 5.28773438 11.14890625 6.19265625 11.125 7.125 C11.10695312 8.03507813 11.08890625 8.94515625 11.0703125 9.8828125 C11.04710937 10.58148438 11.02390625 11.28015625 11 12 C10.01 12 9.02 12 8 12 C7.67 9.03 7.34 6.06 7 3 C5.68 2.67 4.36 2.34 3 2 C3 5.3 3 8.6 3 12 C2.01 12 1.02 12 0 12 C0 8.04 0 4.08 0 0 Z " fill="#555354" transform="translate(214,164)"/>
<path d="M0 0 C0.66 0 1.32 0 2 0 C2 1.65 2 3.3 2 5 C4.31 5 6.62 5 9 5 C10.26237731 7.52475462 10.09856404 9.31200466 10.0625 12.125 C10.05347656 13.03507813 10.04445313 13.94515625 10.03515625 14.8828125 C10.02355469 15.58148438 10.01195312 16.28015625 10 17 C9.01 17 8.02 17 7 17 C7 13.7 7 10.4 7 7 C5.68 7.33 4.36 7.66 3 8 C2.67 10.97 2.34 13.94 2 17 C1.34 17 0.68 17 0 17 C0 11.39 0 5.78 0 0 Z " fill="#525051" transform="translate(354,159)"/>
<path d="M0 0 C0.66 0 1.32 0 2 0 C2 1.65 2 3.3 2 5 C4.64 5 7.28 5 10 5 C10 8.96 10 12.92 10 17 C9.01 17 8.02 17 7 17 C7 13.7 7 10.4 7 7 C5.35 7 3.7 7 2 7 C2 9.97 2 12.94 2 16 C1.34 16 0.68 16 0 16 C0 10.72 0 5.44 0 0 Z " fill="#595959" transform="translate(296,186)"/>
<path d="M0 0 C0.94875 0.04125 1.8975 0.0825 2.875 0.125 C2.875 1.115 2.875 2.105 2.875 3.125 C0.895 3.125 -1.085 3.125 -3.125 3.125 C-3.125 3.785 -3.125 4.445 -3.125 5.125 C-2.34125 5.08375 -1.5575 5.0425 -0.75 5 C1.875 5.125 1.875 5.125 3.875 7.125 C3.31944444 11.68055556 3.31944444 11.68055556 1.875 13.125 C-0.45797433 13.16592937 -2.79205225 13.16741723 -5.125 13.125 C-5.455 12.135 -5.785 11.145 -6.125 10.125 C-3.815 10.455 -1.505 10.785 0.875 11.125 C0.875 10.135 0.875 9.145 0.875 8.125 C0.070625 8.145625 -0.73375 8.16625 -1.5625 8.1875 C-4.125 8.125 -4.125 8.125 -5.125 7.125 C-5.3125 4.6875 -5.3125 4.6875 -5.125 2.125 C-3.125 0.125 -3.125 0.125 0 0 Z " fill="#555454" transform="translate(340.125,189.875)"/>
<path d="M0 0 C0.66 0 1.32 0 2 0 C2.33 3.3 2.66 6.6 3 10 C3.99 10 4.98 10 6 10 C6.33 6.7 6.66 3.4 7 0 C7.99 0 8.98 0 10 0 C10 4.29 10 8.58 10 13 C3.9453125 13.1953125 3.9453125 13.1953125 2 13 C0 11 0 11 -0.1953125 8.3984375 C-0.17210937 7.40070313 -0.14890625 6.40296875 -0.125 5.375 C-0.10695313 4.37210938 -0.08890625 3.36921875 -0.0703125 2.3359375 C-0.04710937 1.56507813 -0.02390625 0.79421875 0 0 Z " fill="#504E4F" transform="translate(370,190)"/>
<path d="M0 0 C1.32 0 2.64 0 4 0 C4 5.94 4 11.88 4 18 C2.68 18 1.36 18 0 18 C0 12.06 0 6.12 0 0 Z " fill="#767676" transform="translate(314,185)"/>
<path d="M0 0 C0 0.33 0 0.66 0 1 C-0.6798999 1.10546143 -1.3597998 1.21092285 -2.06030273 1.31958008 C-5.18733939 1.80926727 -8.312369 2.31080063 -11.4375 2.8125 C-12.50677734 2.97814453 -13.57605469 3.14378906 -14.67773438 3.31445312 C-20.42313038 4.2456641 -25.75464446 5.38419887 -31.17993164 7.51831055 C-33 8 -33 8 -36 7 C-34.68 6.67 -33.36 6.34 -32 6 C-32 5.34 -32 4.68 -32 4 C-22.0667085 -0.41067794 -10.68468737 -0.3194757 0 0 Z " fill="#2CA1CE" transform="translate(160,107)"/>
<path d="M0 0 C0.66 0 1.32 0 2 0 C2.66 1.98 3.32 3.96 4 6 C4.99 4.02 5.98 2.04 7 0 C7.66 0 8.32 0 9 0 C8.41838323 5.52535936 6.84657231 11.20149239 4 16 C1.86328125 16.79296875 1.86328125 16.79296875 0 17 C0.350625 16.29875 0.70125 15.5975 1.0625 14.875 C2.19008466 11.41707372 1.79047598 9.52121116 1 6 C0.66666667 4 0.33333333 2 0 0 Z " fill="#454445" transform="translate(427,164)"/>
<path d="M0 0 C3.96 0 7.92 0 12 0 C12 0.66 12 1.32 12 2 C10.68 2 9.36 2 8 2 C8 6.95 8 11.9 8 17 C7.01 17 6.02 17 5 17 C5 12.05 5 7.1 5 2 C3.35 2 1.7 2 0 2 C0 1.34 0 0.68 0 0 Z " fill="#545352" transform="translate(316,159)"/>
<path d="M0 0 C6.0546875 -0.1953125 6.0546875 -0.1953125 8 0 C10 2 10 2 10.1953125 4.3828125 C10.17210937 5.28773438 10.14890625 6.19265625 10.125 7.125 C10.10695313 8.03507813 10.08890625 8.94515625 10.0703125 9.8828125 C10.04710937 10.58148438 10.02390625 11.28015625 10 12 C9.01 12 8.02 12 7 12 C7 8.7 7 5.4 7 2 C5.68 2.33 4.36 2.66 3 3 C2.67 5.97 2.34 8.94 2 12 C1.34 12 0.68 12 0 12 C0 8.04 0 4.08 0 0 Z " fill="#555452" transform="translate(368,164)"/>
<path d="M0 0 C1.60875 -0.020625 3.2175 -0.04125 4.875 -0.0625 C5.77992188 -0.07410156 6.68484375 -0.08570313 7.6171875 -0.09765625 C10 0 10 0 12 1 C10.125 6.875 10.125 6.875 9 8 C7.00041636 8.04080783 4.99954746 8.04254356 3 8 C3 6.35 3 4.7 3 3 C4.65 2.67 6.3 2.34 8 2 C5.69 1.67 3.38 1.34 1 1 C1 6.61 1 12.22 1 18 C0.67 18 0.34 18 0 18 C0 12.06 0 6.12 0 0 Z " fill="#AAAAAA" transform="translate(207,185)"/>
<path d="M0 0 C0.66 0.33 1.32 0.66 2 1 C1.45730469 2.17175781 0.91460937 3.34351563 0.35546875 4.55078125 C-3.45736843 12.88825622 -7.09272937 20.9801993 -9 30 C-9.33 30 -9.66 30 -10 30 C-10.29125818 24.56318065 -9.77348191 21.0133093 -7.66796875 16.03125 C-6.55541341 12.64804077 -6.81076603 9.53236738 -7 6 C-5.35 6 -3.7 6 -2 6 C-1.855625 5.195625 -1.71125 4.39125 -1.5625 3.5625 C-1 1 -1 1 0 0 Z " fill="#2EA6CD" transform="translate(78,154)"/>
<path d="M0 0 C2.05078125 0.03255208 4.1015625 0.06510417 6.15234375 0.09765625 C6.15234375 0.75765625 6.15234375 1.41765625 6.15234375 2.09765625 C3.84234375 2.09765625 1.53234375 2.09765625 -0.84765625 2.09765625 C-0.84765625 2.75765625 -0.84765625 3.41765625 -0.84765625 4.09765625 C-0.06390625 4.05640625 0.71984375 4.01515625 1.52734375 3.97265625 C4.15234375 4.09765625 4.15234375 4.09765625 6.15234375 6.09765625 C5.59678819 10.65321181 5.59678819 10.65321181 4.15234375 12.09765625 C1.81936942 12.13858562 -0.5147085 12.14007348 -2.84765625 12.09765625 C-2.84765625 11.10765625 -2.84765625 10.11765625 -2.84765625 9.09765625 C-0.86765625 9.09765625 1.11234375 9.09765625 3.15234375 9.09765625 C3.48234375 8.43765625 3.81234375 7.77765625 4.15234375 7.09765625 C1.84234375 6.76765625 -0.46765625 6.43765625 -2.84765625 6.09765625 C-2.89037725 4.4315372 -2.88829457 2.7638274 -2.84765625 1.09765625 C-1.84765625 0.09765625 -1.84765625 0.09765625 0 0 Z " fill="#565455" transform="translate(238.84765625,190.90234375)"/>
<path d="M0 0 C2.31 0 4.62 0 7 0 C7 0.66 7 1.32 7 2 C5.02 2 3.04 2 1 2 C1.89335797 4.35785318 1.89335797 4.35785318 5.0625 5.125 C6.031875 5.41375 7.00125 5.7025 8 6 C8.042721 7.66611905 8.04063832 9.33382885 8 11 C7 12 7 12 5.15234375 12.09765625 C3.1015625 12.06510417 1.05078125 12.03255208 -1 12 C-1 11.01 -1 10.02 -1 9 C0.98 9 2.96 9 5 9 C5.33 8.34 5.66 7.68 6 7 C5.21625 7.04125 4.4325 7.0825 3.625 7.125 C1 7 1 7 -1 5 C-0.625 2.375 -0.625 2.375 0 0 Z " fill="#4C4B49" transform="translate(256,164)"/>
<path d="M0 0 C0.93423645 3.01031744 1.04449911 3.86650268 0 7 C-0.99 7.33 -1.98 7.66 -3 8 C-4.18716935 11.18563311 -5.12499036 14.35307909 -6.01757812 17.62890625 C-6.62109375 19.65625 -6.62109375 19.65625 -8 23 C-10.16015625 23.96875 -10.16015625 23.96875 -12 24 C-9.41708317 15.24678184 -5.65228827 7.21676092 0 0 Z " fill="#B5F0F6" transform="translate(84,148)"/>
<path d="M0 0 C0.66 0.33 1.32 0.66 2 1 C1.01 2.485 1.01 2.485 0 4 C-0.66 4 -1.32 4 -2 4 C-2 4.66 -2 5.32 -2 6 C-4.5 7.5 -4.5 7.5 -7 9 C-10.02645197 11.65737247 -12.18514453 14.16012507 -14.0625 17.6875 C-15.91180917 20.84922212 -16.6069469 21.90937579 -20 23 C-18.87548273 20.0280615 -17.77706209 17.66559313 -16 15 C-15.34 15 -14.68 15 -14 15 C-13.93554688 14.43539062 -13.87109375 13.87078125 -13.8046875 13.2890625 C-12.66836003 10.05659699 -10.69709344 8.60414765 -8.125 6.375 C-7.24070312 5.59898437 -6.35640625 4.82296875 -5.4453125 4.0234375 C-3 2 -3 2 0 0 Z " fill="#2CA1D0" transform="translate(126,151)"/>
<path d="M0 0 C0.66 0 1.32 0 2 0 C2 4.29 2 8.58 2 13 C6.95 13 11.9 13 17 13 C16.67 13.66 16.34 14.32 16 15 C14.04174127 15.02694851 12.08337774 15.04637218 10.125 15.0625 C9.03445313 15.07410156 7.94390625 15.08570312 6.8203125 15.09765625 C4 15 4 15 2 14 C2 14.66 2 15.32 2 16 C5.3 16 8.6 16 12 16 C12 16.33 12 16.66 12 17 C8.37 17 4.74 17 1 17 C0.18764525 12.93822627 -0.10732417 9.76649908 -0.0625 5.6875 C-0.05347656 4.61886719 -0.04445313 3.55023438 -0.03515625 2.44921875 C-0.02355469 1.64097656 -0.01195312 0.83273438 0 0 Z " fill="#353432" transform="translate(283,100)"/>
<path d="M0 0 C0.66 0 1.32 0 2 0 C2.33 2.97 2.66 5.94 3 9 C3.99 9 4.98 9 6 9 C6.33 6.03 6.66 3.06 7 0 C7.66 0 8.32 0 9 0 C9 3.96 9 7.92 9 12 C2.84765625 12.09765625 2.84765625 12.09765625 1 12 C0 11 0 11 -0.09765625 8.49609375 C-0.08605469 7.48675781 -0.07445312 6.47742188 -0.0625 5.4375 C-0.05347656 4.42558594 -0.04445312 3.41367188 -0.03515625 2.37109375 C-0.02355469 1.58863281 -0.01195312 0.80617187 0 0 Z " fill="#454344" transform="translate(242,164)"/>
<path d="M0 0 C0 0.99 0 1.98 0 3 C-1.98 3 -3.96 3 -6 3 C-6.33 4.98 -6.66 6.96 -7 9 C-4.69 9 -2.38 9 0 9 C0 9.99 0 10.98 0 12 C-3.375 12.125 -3.375 12.125 -7 12 C-9 10 -9 10 -9.3125 6.0625 C-9.23330121 3.50018618 -9.11578846 2.21227884 -7.875 -0.0625 C-5.06457284 -1.46771358 -2.96791942 -0.72549141 0 0 Z " fill="#4A4849" transform="translate(351,164)"/>
<path d="M0 0 C0.99 0 1.98 0 3 0 C3 1.32 3 2.64 3 4 C3.99 4 4.98 4 6 4 C6 4.66 6 5.32 6 6 C5.01 6 4.02 6 3 6 C3 8.64 3 11.28 3 14 C3.99 14 4.98 14 6 14 C6 14.66 6 15.32 6 16 C1.125 15.125 1.125 15.125 0 14 C-0.26169347 12.40366983 -0.46007377 10.79670875 -0.625 9.1875 C-0.72039062 8.31480469 -0.81578125 7.44210938 -0.9140625 6.54296875 C-0.9961813 4.11299888 -0.7204342 2.30646472 0 0 Z " fill="#5F5E5D" transform="translate(267,160)"/>
<path d="M0 0 C0.33 0 0.66 0 1 0 C1.25 5.625 1.25 5.625 -1 9 C-1.41743365 11.24645876 -1.41743365 11.24645876 -1.5625 13.625 C-1.90158172 17.90158172 -1.90158172 17.90158172 -3 19 C-3.07148199 20.35243917 -3.08399454 21.70834367 -3.0625 23.0625 C-3.041875 24.361875 -3.02125 25.66125 -3 27 C-3.99 26.67 -4.98 26.34 -6 26 C-6.26358917 19.98475999 -5.49574117 15.30223166 -3.5625 9.625 C-3.33240234 8.91472656 -3.10230469 8.20445312 -2.86523438 7.47265625 C-2.02688759 4.91144607 -1.2069638 2.4139276 0 0 Z " fill="#339FCC" transform="translate(105,174)"/>
<path d="M0 0 C0.99 0 1.98 0 3 0 C3 0.99 3 1.98 3 3 C3.66 3 4.32 3 5 3 C5 3.99 5 4.98 5 6 C4.34 6 3.68 6 3 6 C3 8.64 3 11.28 3 14 C3.66 14 4.32 14 5 14 C5 14.66 5 15.32 5 16 C1.125 15.125 1.125 15.125 0 14 C-0.26159628 12.21533207 -0.45999701 10.42117545 -0.625 8.625 C-0.72039062 7.64789063 -0.81578125 6.67078125 -0.9140625 5.6640625 C-1 3 -1 3 0 0 Z " fill="#464545" transform="translate(347,187)"/>
<path d="M0 0 C0.99 0 1.98 0 3 0 C3 0.99 3 1.98 3 3 C3.66 3 4.32 3 5 3 C5 3.66 5 4.32 5 5 C4.34 5 3.68 5 3 5 C3 7.64 3 10.28 3 13 C3.66 13 4.32 13 5 13 C5 13.99 5 14.98 5 16 C3.68 16 2.36 16 1 16 C-0.18109676 13.63780647 -0.35238516 11.74989148 -0.625 9.125 C-0.72039062 8.26132813 -0.81578125 7.39765625 -0.9140625 6.5078125 C-0.99679303 4.09358507 -0.71443024 2.29257465 0 0 Z " fill="#5F5E5F" transform="translate(384,187)"/>
<path d="M0 0 C0.66 0 1.32 0 2 0 C2 1.32 2 2.64 2 4 C2.99 4 3.98 4 5 4 C5 4.66 5 5.32 5 6 C4.34 6 3.68 6 3 6 C3 8.31 3 10.62 3 13 C3.66 13 4.32 13 5 13 C5 13.99 5 14.98 5 16 C3.35 16 1.7 16 0 16 C-0.19504458 13.89651926 -0.38078496 11.79217415 -0.5625 9.6875 C-0.66691406 8.51574219 -0.77132813 7.34398437 -0.87890625 6.13671875 C-1 3 -1 3 0 0 Z " fill="#6B696A" transform="translate(362,187)"/>
<path d="M0 0 C0.94875 0.04125 1.8975 0.0825 2.875 0.125 C2.875 1.115 2.875 2.105 2.875 3.125 C1.225 3.455 -0.425 3.785 -2.125 4.125 C-2.455 6.105 -2.785 8.085 -3.125 10.125 C-0.815 10.125 1.495 10.125 3.875 10.125 C3.545 11.115 3.215 12.105 2.875 13.125 C0 13.3125 0 13.3125 -3.125 13.125 C-5.83732939 9.05650591 -5.43199887 6.96023216 -5.125 2.125 C-3.125 0.125 -3.125 0.125 0 0 Z " fill="#515051" transform="translate(289.125,189.875)"/>
<path d="M0 0 C0.99 0 1.98 0 3 0 C3 4.62 3 9.24 3 14 C3.66 14 4.32 14 5 14 C5 14.99 5 15.98 5 17 C3.35 16.67 1.7 16.34 0 16 C0 10.72 0 5.44 0 0 Z " fill="#5A5A5A" transform="translate(305,159)"/>
<path d="M0 0 C7.50769231 -0.36923077 7.50769231 -0.36923077 10 1.5 C10.495 2.2425 10.495 2.2425 11 3 C9.35 3.33 7.7 3.66 6 4 C6.33 5.98 6.66 7.96 7 10 C4.0625 9.25 4.0625 9.25 1 8 C-0.29318325 5.22889304 0 3.13539123 0 0 Z " fill="#423E3E" transform="translate(296,89)"/>
<path d="M0 0 C0.99 0 1.98 0 3 0 C3 3.96 3 7.92 3 12 C2.01 12 1.02 12 0 12 C0 11.34 0 10.68 0 10 C-0.66 10 -1.32 10 -2 10 C-2 7.36 -2 4.72 -2 2 C-1.34 2 -0.68 2 0 2 C0 1.34 0 0.68 0 0 Z " fill="#EBE9EA" transform="translate(352,191)"/>
<path d="M0 0 C0.99 0.33 1.98 0.66 3 1 C3.06058594 1.69867188 3.12117188 2.39734375 3.18359375 3.1171875 C3.26738281 4.02726563 3.35117187 4.93734375 3.4375 5.875 C3.51871094 6.77992188 3.59992188 7.68484375 3.68359375 8.6171875 C3.86989285 11.01110861 3.86989285 11.01110861 5 13 C3.35 13 1.7 13 0 13 C0 12.01 0 11.02 0 10 C-0.66 10 -1.32 10 -2 10 C-2 7.69 -2 5.38 -2 3 C-1.34 3 -0.68 3 0 3 C0 2.01 0 1.02 0 0 Z " fill="#FAF8F9" transform="translate(367,190)"/>
<path d="M0 0 C0.99 0 1.98 0 3 0 C3 4.95 3 9.9 3 15 C3.66 15 4.32 15 5 15 C5 15.66 5 16.32 5 17 C1.125 16.125 1.125 16.125 0 15 C-0.07313567 12.46950598 -0.09247527 9.96695163 -0.0625 7.4375 C-0.05798828 6.72658203 -0.05347656 6.01566406 -0.04882812 5.28320312 C-0.03700864 3.52209987 -0.01907263 1.76103964 0 0 Z " fill="#555452" transform="translate(394,159)"/>
<path d="M0 0 C-1.39940378 4.89791322 -4.04673997 6.93420651 -8 10 C-8.5775 10.598125 -9.155 11.19625 -9.75 11.8125 C-11 13 -11 13 -13 13 C-13 12.01 -13 11.02 -13 10 C-12.01 9.34 -11.02 8.68 -10 8 C-9.690625 7.38125 -9.38125 6.7625 -9.0625 6.125 C-6.81142305 1.6228461 -5.08467791 0 0 0 Z " fill="#09A6E0" transform="translate(93,128)"/>
<path d="M0 0 C1.33333333 0 2.66666667 0 4 0 C4.33 1.65 4.66 3.3 5 5 C6.65 5.33 8.3 5.66 10 6 C10 6.99 10 7.98 10 9 C7.69 8.67 5.38 8.34 3 8 C2.67 8.66 2.34 9.32 2 10 C1.01 10.495 1.01 10.495 0 11 C0 7.37 0 3.74 0 0 Z " fill="#DEDCDD" transform="translate(331,192)"/>
<path d="M0 0 C0.99 0.33 1.98 0.66 3 1 C3 3.97 3 6.94 3 10 C1.68 10.33 0.36 10.66 -1 11 C-2 10 -2 10 -2.09765625 7.93359375 C-2.08605469 7.10988281 -2.07445312 6.28617188 -2.0625 5.4375 C-2.05347656 4.61121094 -2.04445312 3.78492188 -2.03515625 2.93359375 C-2.02355469 2.29550781 -2.01195312 1.65742188 -2 1 C-1.34 0.67 -0.68 0.34 0 0 Z " fill="#E7E6E7" transform="translate(246,163)"/>
<path d="M0 0 C2.64 0.33 5.28 0.66 8 1 C8 1.66 8 2.32 8 3 C6.35 3 4.7 3 3 3 C3 6.3 3 9.6 3 13 C2.01 13 1.02 13 0 13 C0 8.71 0 4.42 0 0 Z " fill="#575556" transform="translate(274,190)"/>
<path d="M0 0 C0.99 0 1.98 0 3 0 C4.125 6.625 4.125 6.625 3 10 C2.34 10 1.68 10 1 10 C0.938125 9.071875 0.938125 9.071875 0.875 8.125 C0.58625 7.42375 0.2975 6.7225 0 6 C-2.99615946 4.6954344 -2.99615946 4.6954344 -6 4 C-6 3.34 -6 2.68 -6 2 C-4.02 2 -2.04 2 0 2 C0 1.34 0 0.68 0 0 Z " fill="#DFDEDC" transform="translate(263,164)"/>
<path d="M0 0 C0.99 0 1.98 0 3 0 C2.01 5.94 1.02 11.88 0 18 C-0.66 18 -1.32 18 -2 18 C-2.20852314 11.59370576 -2.1583195 6.07027358 0 0 Z " fill="#D8F8FD" transform="translate(99,182)"/>
<path d="M0 0 C1.32 0.33 2.64 0.66 4 1 C4 3.97 4 6.94 4 10 C3.01 10 2.02 10 1 10 C0.773125 9.195625 0.54625 8.39125 0.3125 7.5625 C-0.120625 6.716875 -0.55375 5.87125 -1 5 C-3.54775306 4.10613836 -3.54775306 4.10613836 -6 4 C-6 3.34 -6 2.68 -6 2 C-4.02 2 -2.04 2 0 2 C0 1.34 0 0.68 0 0 Z " fill="#E6E4E5" transform="translate(343,191)"/>
<path d="M0 0 C1.24546405 2.49092811 0.7767578 3.41080733 0 6 C-1.65 6 -3.3 6 -5 6 C-5 5.34 -5 4.68 -5 4 C-5.66 4 -6.32 4 -7 4 C-7 5.98 -7 7.96 -7 10 C-7.33 10 -7.66 10 -8 10 C-8.36272727 3.59181818 -8.36272727 3.59181818 -6.8125 1.0625 C-4.43958382 -0.32851983 -2.70313576 -0.21917317 0 0 Z " fill="#8B898A" transform="translate(399,190)"/>
<path d="M0 0 C1.32 0.33 2.64 0.66 4 1 C4.33 2.65 4.66 4.3 5 6 C2.69 6 0.38 6 -2 6 C-1.67 6.99 -1.34 7.98 -1 9 C0.98 9 2.96 9 5 9 C4.67 9.99 4.34 10.98 4 12 C1.125 12.125 1.125 12.125 -2 12 C-4 10 -4 10 -4.125 7.375 C-4.08375 6.59125 -4.0425 5.8075 -4 5 C-1.36 5 1.28 5 4 5 C2.68 3.35 1.36 1.7 0 0 Z " fill="#3A3938" transform="translate(333,164)"/>
<path d="M0 0 C-0.33 2.31 -0.66 4.62 -1 7 C-1.66 7 -2.32 7 -3 7 C-3.33 7.66 -3.66 8.32 -4 9 C-4.226875 8.195625 -4.45375 7.39125 -4.6875 6.5625 C-5.120625 5.716875 -5.55375 4.87125 -6 4 C-8.54775306 3.10613836 -8.54775306 3.10613836 -11 3 C-11 2.34 -11 1.68 -11 1 C-7.26513121 0.4254048 -3.78706732 0 0 0 Z " fill="#D3D1D2" transform="translate(249,192)"/>
<path d="M0 0 C1.32 0.33 2.64 0.66 4 1 C4 4.3 4 7.6 4 11 C3.01 10.67 2.02 10.34 1 10 C0.67 10.99 0.34 11.98 0 13 C0 8.71 0 4.42 0 0 Z " fill="#E5E3E4" transform="translate(380,190)"/>
<path d="M0 0 C0.33 0 0.66 0 1 0 C1 5.61 1 11.22 1 17 C0.01 16.67 -0.98 16.34 -2 16 C-2 15.34 -2 14.68 -2 14 C-2.99 13.67 -3.98 13.34 -5 13 C-4.34 12.67 -3.68 12.34 -3 12 C-3 11.01 -3 10.02 -3 9 C-2.34 8.34 -1.68 7.68 -1 7 C-0.59952556 4.67724823 -0.2602896 2.34260643 0 0 Z " fill="#E6E4E5" transform="translate(353,159)"/>
<path d="M0 0 C0.66 1.32 1.32 2.64 2 4 C2.99 2.68 3.98 1.36 5 0 C5 3.3 5 6.6 5 10 C5.99 10.33 6.98 10.66 8 11 C5.36 11 2.72 11 0 11 C0.99 10.67 1.98 10.34 3 10 C3 9.34 3 8.68 3 8 C2.01 8 1.02 8 0 8 C0 5.36 0 2.72 0 0 Z " fill="#E7E6E6" transform="translate(270,166)"/>
<path d="M0 0 C2.12508244 3.18762365 2.5020163 5.26512223 3 9 C1.68 8.67 0.36 8.34 -1 8 C-1.33 9.98 -1.66 11.96 -2 14 C-2.33 14 -2.66 14 -3 14 C-3 10.04 -3 6.08 -3 2 C-3.66 1.67 -4.32 1.34 -5 1 C-3.35 0.67 -1.7 0.34 0 0 Z " fill="#CCCACB" transform="translate(254,162)"/>
<path d="M0 0 C-1.03447266 0.56267578 -1.03447266 0.56267578 -2.08984375 1.13671875 C-8.07569333 4.3965024 -14.04807289 7.67867771 -20 11 C-18.70987794 7.12963382 -17.17612353 6.5582155 -13.75 4.4375 C-12.79609375 3.83808594 -11.8421875 3.23867187 -10.859375 2.62109375 C-3.92716237 -1.30905412 -3.92716237 -1.30905412 0 0 Z " fill="#2CA1CA" transform="translate(124,116)"/>
<path d="M0 0 C2.0625 0.4375 2.0625 0.4375 4 1 C3.01 1.66 2.02 2.32 1 3 C0.26656572 6.06556598 0.26656572 6.06556598 0 9 C2.31 9 4.62 9 7 9 C7 9.99 7 10.98 7 12 C3.625 12.1875 3.625 12.1875 0 12 C-2.79921583 7.80117625 -1.86558093 5.87872887 -1 1 C-0.67 0.67 -0.34 0.34 0 0 Z " fill="#373536" transform="translate(250,191)"/>
<path d="M0 0 C0.99 0 1.98 0 3 0 C3 4.29 3 8.58 3 13 C2.01 13 1.02 13 0 13 C0 8.71 0 4.42 0 0 Z " fill="#656364" transform="translate(355,190)"/>
<path d="M0 0 C-12.57575758 6.60227273 -12.57575758 6.60227273 -19 6 C-16.45757288 2.93853067 -13.79531359 1.98658102 -10.0625 0.75 C-9.02222656 0.39421875 -7.98195312 0.0384375 -6.91015625 -0.328125 C-4.05806177 -0.98659513 -2.69443735 -1.01284874 0 0 Z " fill="#BCF1FB" transform="translate(140,112)"/>
<path d="M0 0 C0.66 0 1.32 0 2 0 C2.1953125 6.0546875 2.1953125 6.0546875 2 8 C1.34 8.66 0.68 9.32 0 10 C0 9.34 0 8.68 0 8 C-0.78375 8.185625 -1.5675 8.37125 -2.375 8.5625 C-5 9 -5 9 -7 8 C-7 7.01 -7 6.02 -7 5 C-4.36 5 -1.72 5 1 5 C0.67 3.35 0.34 1.7 0 0 Z " fill="#CFCDCE" transform="translate(257,192)"/>
<path d="M0 0 C3.00617269 3.00617269 2.59585316 5.82381598 3 10 C2.01 10.66 1.02 11.32 0 12 C0 11.01 0 10.02 0 9 C-0.66 9 -1.32 9 -2 9 C-2 6.36 -2 3.72 -2 1 C-1.34 0.67 -0.68 0.34 0 0 Z " fill="#F0EEEF" transform="translate(389,191)"/>
<path d="M0 0 C1.32 0 2.64 0 4 0 C4 2.64 4 5.28 4 8 C2.35 7.67 0.7 7.34 -1 7 C-1.04254356 5.00045254 -1.04080783 2.99958364 -1 1 C-0.67 0.67 -0.34 0.34 0 0 Z " fill="#DBDADB" transform="translate(404,166)"/>
<path d="M0 0 C0 0.66 0 1.32 0 2 C-1.15838621 3.12431603 -2.31867233 4.24673843 -3.48828125 5.359375 C-6.44150514 8.56442419 -8.6724936 12.32877857 -11 16 C-11.61328125 14.203125 -11.61328125 14.203125 -12 12 C-10.1875 8.75 -10.1875 8.75 -8 6 C-7.34 6 -6.68 6 -6 6 C-5.8453125 5.071875 -5.8453125 5.071875 -5.6875 4.125 C-4.72223986 1.14146864 -3.16449578 0 0 0 Z " fill="#2DA5C9" transform="translate(92,138)"/>
<path d="M0 0 C2.31 0 4.62 0 7 0 C6.34 0.66 5.68 1.32 5 2 C5.3185177 4.10820797 5.3185177 4.10820797 6 6 C5.05125 6.0825 4.1025 6.165 3.125 6.25 C-0.10461791 6.65074923 -0.10461791 6.65074923 -1.375 9.0625 C-1.58125 9.701875 -1.7875 10.34125 -2 11 C-2 9.02 -2 7.04 -2 5 C-1.34 4.67 -0.68 4.34 0 4 C0 2.68 0 1.36 0 0 Z " fill="#A4A2A3" transform="translate(262,190)"/>
<path d="M0 0 C0.66 0 1.32 0 2 0 C2 1.98 2 3.96 2 6 C2.66 6.33 3.32 6.66 4 7 C3.67 7.33 3.34 7.66 3 8 C2.76807135 9.51469448 2.58784762 11.03754562 2.4375 12.5625 C2.35371094 13.38878906 2.26992188 14.21507812 2.18359375 15.06640625 C2.12300781 15.70449219 2.06242187 16.34257812 2 17 C1.34 17 0.68 17 0 17 C0 11.39 0 5.78 0 0 Z " fill="#3A3839" transform="translate(354,159)"/>
<path d="M0 0 C0.33 0 0.66 0 1 0 C1.33 3.3 1.66 6.6 2 10 C2.66 9.34 3.32 8.68 4 8 C4.125 14.625 4.125 14.625 3 18 C1.68 17.67 0.36 17.34 -1 17 C-0.01 17 0.98 17 2 17 C2 16.34 2 15.68 2 15 C1.34 15 0.68 15 0 15 C0 10.05 0 5.1 0 0 Z " fill="#DFDEDD" transform="translate(397,159)"/>
<path d="M0 0 C2.475 0.495 2.475 0.495 5 1 C5 2.98 5 4.96 5 7 C3.0625 7.5625 3.0625 7.5625 1 8 C0 7 0 7 -0.0625 3.4375 C-0.041875 2.303125 -0.02125 1.16875 0 0 Z " fill="#DBD9DA" transform="translate(230,166)"/>
<path d="M0 0 C1.65 0 3.3 0 5 0 C5 3.3 5 6.6 5 10 C4.67 10 4.34 10 4 10 C4 8.35 4 6.7 4 5 C1.5 6 1.5 6 0 10 C0 6.7 0 3.4 0 0 Z " fill="#DCDADB" transform="translate(324,193)"/>
<path d="M0 0 C0.763125 0.20625 1.52625 0.4125 2.3125 0.625 C2.3125 2.275 2.3125 3.925 2.3125 5.625 C0.3325 5.625 -1.6475 5.625 -3.6875 5.625 C-4.3475 4.305 -5.0075 2.985 -5.6875 1.625 C-2.6875 -0.375 -2.6875 -0.375 0 0 Z " fill="#616061" transform="translate(228.6875,190.375)"/>
<path d="M0 0 C0.99 0 1.98 0 3 0 C3 3.96 3 7.92 3 12 C2.01 12 1.02 12 0 12 C0 8.04 0 4.08 0 0 Z " fill="#5F5D5D" transform="translate(286,164)"/>
<path d="M0 0 C3.22430866 4.83646298 3.09242903 7.26939984 3 13 C1.43038081 11.00230285 0.11103143 9.28611946 -0.8125 6.90625 C-1.83782357 4.78341565 -1.83782357 4.78341565 -4.1640625 4.390625 C-4.97617188 4.34421875 -5.78828125 4.2978125 -6.625 4.25 C-7.85089844 4.16492188 -7.85089844 4.16492188 -9.1015625 4.078125 C-9.72804687 4.05234375 -10.35453125 4.0265625 -11 4 C-11 3.67 -11 3.34 -11 3 C-10.28972656 2.95101562 -9.57945312 2.90203125 -8.84765625 2.8515625 C-7.46900391 2.73941406 -7.46900391 2.73941406 -6.0625 2.625 C-5.14597656 2.55539063 -4.22945312 2.48578125 -3.28515625 2.4140625 C-2.15400391 2.20910156 -2.15400391 2.20910156 -1 2 C-0.67 1.34 -0.34 0.68 0 0 Z " fill="#DBDADB" transform="translate(225,160)"/>
<path d="M0 0 C0.55171875 0.22558594 1.1034375 0.45117188 1.671875 0.68359375 C1.341875 1.67359375 1.011875 2.66359375 0.671875 3.68359375 C-3.783125 4.17859375 -3.783125 4.17859375 -8.328125 4.68359375 C-8.328125 5.34359375 -8.328125 6.00359375 -8.328125 6.68359375 C-9.648125 6.35359375 -10.968125 6.02359375 -12.328125 5.68359375 C-10.75465324 4.64762475 -9.16890954 3.63027643 -7.578125 2.62109375 C-6.69640625 2.05261719 -5.8146875 1.48414063 -4.90625 0.8984375 C-2.328125 -0.31640625 -2.328125 -0.31640625 0 0 Z " fill="#31A4D5" transform="translate(140.328125,144.31640625)"/>
<path d="M0 0 C0.33 0.66 0.66 1.32 1 2 C0.67 2.66 0.34 3.32 0 4 C-0.66 4 -1.32 4 -2 4 C-2 5.32 -2 6.64 -2 8 C-2.66 8 -3.32 8 -4 8 C-4.33 8.99 -4.66 9.98 -5 11 C-5 10.01 -5 9.02 -5 8 C-5.99 8 -6.98 8 -8 8 C-8 7.34 -8 6.68 -8 6 C-6.68 5.67 -5.36 5.34 -4 5 C-4 4.34 -4 3.68 -4 3 C-5.32 2.67 -6.64 2.34 -8 2 C-5.36 1.34 -2.72 0.68 0 0 Z " fill="#474344" transform="translate(309,111)"/>
<path d="M0 0 C0.66 0 1.32 0 2 0 C2 10.23 2 20.46 2 31 C1.67 31 1.34 31 1 31 C1 21.76 1 12.52 1 3 C0.34 3 -0.32 3 -1 3 C-0.67 2.01 -0.34 1.02 0 0 Z " fill="#4297B3" transform="translate(160,77)"/>
<path d="M0 0 C1.65 0 3.3 0 5 0 C5 1.98 5 3.96 5 6 C4.01 6 3.02 6 2 6 C1.67 7.32 1.34 8.64 1 10 C0.01 9.67 -0.98 9.34 -2 9 C-1.34 9 -0.68 9 0 9 C0 6.03 0 3.06 0 0 Z " fill="#D2D2D2" transform="translate(298,193)"/>
<path d="M0 0 C0.33 0 0.66 0 1 0 C1 3.3 1 6.6 1 10 C-1.97 10 -4.94 10 -8 10 C-7.67 8.35 -7.34 6.7 -7 5 C-5.35 5 -3.7 5 -2 5 C-2 5.99 -2 6.98 -2 8 C-1.34 8.33 -0.68 8.66 0 9 C0 6.03 0 3.06 0 0 Z " fill="#9D9C9A" transform="translate(301,166)"/>
<path d="M0 0 C2.31 0 4.62 0 7 0 C7 0.66 7 1.32 7 2 C5.68 2.33 4.36 2.66 3 3 C2.67 5.97 2.34 8.94 2 12 C1.34 12 0.68 12 0 12 C0 8.04 0 4.08 0 0 Z " fill="#413F40" transform="translate(276,164)"/>
<path d="M0 0 C1.98 0 3.96 0 6 0 C6 0.66 6 1.32 6 2 C6.66 2 7.32 2 8 2 C8.66 3.98 9.32 5.96 10 8 C8.125 7.8125 8.125 7.8125 6 7 C5.29788106 5.34795544 4.63028587 3.68076231 4 2 C3.01 1.67 2.02 1.34 1 1 C1 3.31 1 5.62 1 8 C0.67 8 0.34 8 0 8 C0 5.36 0 2.72 0 0 Z " fill="#686667" transform="translate(210,195)"/>
<path d="M0 0 C0.33 0 0.66 0 1 0 C1 2.64 1 5.28 1 8 C1.99 8.33 2.98 8.66 4 9 C2.02 9.66 0.04 10.32 -2 11 C-2 10.34 -2 9.68 -2 9 C-3.32 9.33 -4.64 9.66 -6 10 C-5.67 10.66 -5.34 11.32 -5 12 C-5.99 12 -6.98 12 -8 12 C-8.66 10.68 -9.32 9.36 -10 8 C-7.36 7.67 -4.72 7.34 -2 7 C-1.34 4.69 -0.68 2.38 0 0 Z " fill="#EDEBEC" transform="translate(273,195)"/>
<path d="M0 0 C1.32 0 2.64 0 4 0 C4 2.31 4 4.62 4 7 C2.35 7 0.7 7 -1 7 C-1.04254356 5.00045254 -1.04080783 2.99958364 -1 1 C-0.67 0.67 -0.34 0.34 0 0 Z " fill="#E4E3E1" transform="translate(384,166)"/>
<path d="M0 0 C2.125 0.375 2.125 0.375 4 1 C4 1.66 4 2.32 4 3 C4.33 3.99 4.66 4.98 5 6 C2.36 6 -0.28 6 -3 6 C-2.42655063 3.13275314 -2.1385485 2.1385485 0 0 Z " fill="#908F8D" transform="translate(332,163)"/>
<path d="M0 0 C0 3.96 0 7.92 0 12 C-0.99 11.67 -1.98 11.34 -3 11 C-5.28070175 4.84210526 -5.28070175 4.84210526 -4 1 C-1 0 -1 0 0 0 Z " fill="#F5F4F3" transform="translate(305,160)"/>
<path d="M0 0 C1.32 0.33 2.64 0.66 4 1 C3.125 5.875 3.125 5.875 2 7 C0.33382885 7.04063832 -1.33388095 7.042721 -3 7 C-2.01 4.69 -1.02 2.38 0 0 Z " fill="#01AEF7" transform="translate(117,161)"/>
<path d="M0 0 C0.33 0.66 0.66 1.32 1 2 C3.02463255 2.65213292 3.02463255 2.65213292 5 3 C4.34 3 3.68 3 3 3 C3 6.3 3 9.6 3 13 C2.67 13 2.34 13 2 13 C1.67 11.35 1.34 9.7 1 8 C0.34 8 -0.32 8 -1 8 C-1.04241723 5.66705225 -1.04092937 3.33297433 -1 1 C-0.67 0.67 -0.34 0.34 0 0 Z " fill="#D5D3D4" transform="translate(239,161)"/>
<path d="M0 0 C0.33 0 0.66 0 1 0 C1.25 6.625 1.25 6.625 -1 10 C-4.125 10.1875 -4.125 10.1875 -7 10 C-6.67 9.01 -6.34 8.02 -6 7 C-4.68 7 -3.36 7 -2 7 C-2.04125 6.21625 -2.0825 5.4325 -2.125 4.625 C-2 2 -2 2 0 0 Z " fill="#5F5E5C" transform="translate(390,166)"/>
<path d="M0 0 C1.32 0 2.64 0 4 0 C4 1.98 4 3.96 4 6 C2.0625 6.5625 2.0625 6.5625 0 7 C-1 6 -1 6 -1.125 3.5 C-1 1 -1 1 0 0 Z " fill="#E3E1E2" transform="translate(417,166)"/>
<path d="M0 0 C0.99 0.33 1.98 0.66 3 1 C3 1.66 3 2.32 3 3 C4.32 3.33 5.64 3.66 7 4 C1.555 5.485 1.555 5.485 -4 7 C-2 3 -2 3 0 0 Z " fill="#D6F8FE" transform="translate(141,138)"/>
<path d="M0 0 C2.64 0 5.28 0 8 0 C8 2.97 8 5.94 8 9 C7.67 9 7.34 9 7 9 C6.67 6.69 6.34 4.38 6 2 C4.05000871 2.19471111 4.05000871 2.19471111 2 3 C0.71563266 4.9837767 0.71563266 4.9837767 0 7 C0 4.69 0 2.38 0 0 Z " fill="#3A3839" transform="translate(415,164)"/>
<path d="M0 0 C0.99 0 1.98 0 3 0 C3 0.99 3 1.98 3 3 C3.66 3 4.32 3 5 3 C5 4.32 5 5.64 5 7 C3.35 7 1.7 7 0 7 C0 4.69 0 2.38 0 0 Z " fill="#04AAF0" transform="translate(101,193)"/>
<path d="M0 0 C0.66 0.99 1.32 1.98 2 3 C1.01 3.495 1.01 3.495 0 4 C-0.33 4.99 -0.66 5.98 -1 7 C-2.65 7.33 -4.3 7.66 -6 8 C-6 9.65 -6 11.3 -6 13 C-6.33 13 -6.66 13 -7 13 C-7 11.02 -7 9.04 -7 7 C-5.68 6.67 -4.36 6.34 -3 6 C-3.33 5.01 -3.66 4.02 -4 3 C-2.68 2.67 -1.36 2.34 0 2 C0 1.34 0 0.68 0 0 Z " fill="#4E4A4A" transform="translate(310,94)"/>
<path d="M0 0 C0.66 0 1.32 0 2 0 C1.125 4.875 1.125 4.875 0 6 C-2.33297433 6.04092937 -4.66705225 6.04241723 -7 6 C-7.33 5.01 -7.66 4.02 -8 3 C-5.69 3 -3.38 3 -1 3 C-0.67 2.01 -0.34 1.02 0 0 Z " fill="#4B494A" transform="translate(342,197)"/>
<path d="M0 0 C0.33 0 0.66 0 1 0 C1.22732116 2.80362763 1.34081872 4.46186517 -0.1875 6.875 C-2 8 -2 8 -4.6875 7.6875 C-5.450625 7.460625 -6.21375 7.23375 -7 7 C-7 6.01 -7 5.02 -7 4 C-4.69 4 -2.38 4 0 4 C0 2.68 0 1.36 0 0 Z " fill="#C0BFBF" transform="translate(401,193)"/>
<path d="M0 0 C1.03115279 3.26913624 0.9638984 5.86041348 0.5625 9.25 C0.46066406 10.14203125 0.35882813 11.0340625 0.25390625 11.953125 C0.12822266 12.96632812 0.12822266 12.96632812 0 14 C-0.99 14.33 -1.98 14.66 -3 15 C-2.44854729 9.76119922 -1.57077907 5.02649303 0 0 Z " fill="#C1F3FD" transform="translate(71,173)"/>
<path d="M0 0 C0.99 0 1.98 0 3 0 C2.01 2.97 1.02 5.94 0 9 C-0.99 9 -1.98 9 -3 9 C-2.01 6.03 -1.02 3.06 0 0 Z " fill="#CFF9FD" transform="translate(75,163)"/>
<path d="M0 0 C0.66 0 1.32 0 2 0 C1.125 4.875 1.125 4.875 0 6 C-2.33297433 6.04092937 -4.66705225 6.04241723 -7 6 C-7 5.01 -7 4.02 -7 3 C-5.02 3 -3.04 3 -1 3 C-0.67 2.01 -0.34 1.02 0 0 Z " fill="#454344" transform="translate(243,197)"/>
<path d="M0 0 C0.66 0.33 1.32 0.66 2 1 C2.8125 3.875 2.8125 3.875 3 7 C1.5625 8.875 1.5625 8.875 0 10 C-0.66 9.67 -1.32 9.34 -2 9 C-1.34 6.03 -0.68 3.06 0 0 Z " fill="#E0DEDF" transform="translate(219,188)"/>
<path d="M0 0 C0.66 0 1.32 0 2 0 C2 3.96 2 7.92 2 12 C0.68 11.34 -0.64 10.68 -2 10 C-1.67 9.67 -1.34 9.34 -1 9 C-0.76807135 7.48530552 -0.58784762 5.96245438 -0.4375 4.4375 C-0.35371094 3.61121094 -0.26992187 2.78492188 -0.18359375 1.93359375 C-0.12300781 1.29550781 -0.06242188 0.65742188 0 0 Z " fill="#393738" transform="translate(249,164)"/>
<path d="M0 0 C1 3 1 3 -0.6875 6.5625 C-2.39805336 9.38759509 -3.7558811 10.95724749 -7 12 C-5.87548273 9.0280615 -4.77706209 6.66559313 -3 4 C-2.34 4 -1.68 4 -1 4 C-0.67 2.68 -0.34 1.36 0 0 Z " fill="#3DB0DB" transform="translate(113,162)"/>
<path d="M0 0 C0.66 0.33 1.32 0.66 2 1 C2.36923077 6.53846154 2.36923077 6.53846154 0.5 8.875 C-0.2425 9.431875 -0.2425 9.431875 -1 10 C-1 9.01 -1 8.02 -1 7 C-2.98 7 -4.96 7 -7 7 C-7 6.67 -7 6.34 -7 6 C-5.02 5.67 -3.04 5.34 -1 5 C-0.67 3.35 -0.34 1.7 0 0 Z " fill="#4B494A" transform="translate(217,187)"/>
<path d="M0 0 C0.99 0 1.98 0 3 0 C3 0.99 3 1.98 3 3 C3.66 3 4.32 3 5 3 C5 3.99 5 4.98 5 6 C4.34 6 3.68 6 3 6 C3 8.31 3 10.62 3 13 C2.67 13 2.34 13 2 13 C1.92652344 12.04287109 1.92652344 12.04287109 1.8515625 11.06640625 C1.77679688 10.24011719 1.70203125 9.41382813 1.625 8.5625 C1.55539062 7.73878906 1.48578125 6.91507813 1.4140625 6.06640625 C1.27742188 5.38449219 1.14078125 4.70257813 1 4 C0.34 3.67 -0.32 3.34 -1 3 C-0.67 2.01 -0.34 1.02 0 0 Z " fill="#6D6C6D" transform="translate(347,187)"/>
<path d="M0 0 C0.66 0 1.32 0 2 0 C1.5020163 3.73487777 1.12508244 5.81237635 -1 9 C-1.99 8.67 -2.98 8.34 -4 8 C-2.66666667 5.33333333 -1.33333333 2.66666667 0 0 Z " fill="#535353" transform="translate(434,164)"/>
<path d="M0 0 C2.31 0 4.62 0 7 0 C7 0.66 7 1.32 7 2 C5.02 2 3.04 2 1 2 C1.66 3.32 2.32 4.64 3 6 C1.68 5.67 0.36 5.34 -1 5 C-0.67 3.35 -0.34 1.7 0 0 Z " fill="#41403E" transform="translate(256,164)"/>
<path d="M0 0 C1.32 0 2.64 0 4 0 C3.67 1.65 3.34 3.3 3 5 C1.68 5 0.36 5 -1 5 C-0.67 3.35 -0.34 1.7 0 0 Z " fill="#FDFBEA" transform="translate(104,164)"/>
<path d="M0 0 C0.33 0.66 0.66 1.32 1 2 C0.360625 2.7425 -0.27875 3.485 -0.9375 4.25 C-2.78333407 6.7111121 -3.56069174 8.03466926 -4 11 C-5.32 11 -6.64 11 -8 11 C-6.63055898 8.05043472 -5.12169591 5.47531189 -3 3 C-2.34 3 -1.68 3 -1 3 C-0.67 2.01 -0.34 1.02 0 0 Z " fill="#BEF3F8" transform="translate(93,137)"/>
<path d="M0 0 C0.33 0 0.66 0 1 0 C1.06058594 0.69867188 1.12117188 1.39734375 1.18359375 2.1171875 C1.26738281 3.02726563 1.35117187 3.93734375 1.4375 4.875 C1.55931641 6.23238281 1.55931641 6.23238281 1.68359375 7.6171875 C1.86989285 10.01110861 1.86989285 10.01110861 3 12 C1.35 12 -0.3 12 -2 12 C-1.855625 11.319375 -1.71125 10.63875 -1.5625 9.9375 C-0.93054091 6.63726918 -0.45686059 3.32855574 0 0 Z " fill="#E2E0E1" transform="translate(369,191)"/>
<path d="M0 0 C0.33 0.99 0.66 1.98 1 3 C0.21625 3.309375 -0.5675 3.61875 -1.375 3.9375 C-3.92330128 4.92875038 -3.92330128 4.92875038 -6 6 C-6.33 4.35 -6.66 2.7 -7 1 C-3.535 0.505 -3.535 0.505 0 0 Z " fill="#D3D2D2" transform="translate(420,175)"/>
<path d="M0 0 C1.9375 0.3125 1.9375 0.3125 4 1 C5.31223496 4.93670488 4.24296256 7.12488144 3 11 C2.67 11 2.34 11 2 11 C1.93941406 10.37351563 1.87882812 9.74703125 1.81640625 9.1015625 C1.73261719 8.28429687 1.64882813 7.46703125 1.5625 6.625 C1.48128906 5.81289062 1.40007812 5.00078125 1.31640625 4.1640625 C1.10909886 1.95727195 1.10909886 1.95727195 0 0 Z " fill="#F6F5F6" transform="translate(269,191)"/>
<path d="M0 0 C1.98 0 3.96 0 6 0 C5.67 1.32 5.34 2.64 5 4 C3.35 4 1.7 4 0 4 C0 2.68 0 1.36 0 0 Z " fill="#F4F4F4" transform="translate(211,189)"/>
<path d="M0 0 C1.32 0.33 2.64 0.66 4 1 C3.67 2.32 3.34 3.64 3 5 C1.35 4.67 -0.3 4.34 -2 4 C-1.34 2.68 -0.68 1.36 0 0 Z " fill="#B3B3B3" transform="translate(355,185)"/>
<path d="M0 0 C0.66 0 1.32 0 2 0 C1.67 4.62 1.34 9.24 1 14 C0.67 14 0.34 14 0 14 C-0.19627391 12.41773035 -0.38165538 10.83410729 -0.5625 9.25 C-0.66691406 8.36828125 -0.77132813 7.4865625 -0.87890625 6.578125 C-0.99456676 4.11567549 -0.73638695 2.33461936 0 0 Z " fill="#676664" transform="translate(267,160)"/>
<path d="M0 0 C1.32 0 2.64 0 4 0 C3.67 2.64 3.34 5.28 3 8 C2.01 7.67 1.02 7.34 0 7 C0 4.69 0 2.38 0 0 Z " fill="#02AEFB" transform="translate(72,152)"/>
<path d="M0 0 C2.64 0 5.28 0 8 0 C7.67 0.99 7.34 1.98 7 3 C2.25 4.125 2.25 4.125 0 3 C0 2.01 0 1.02 0 0 Z " fill="#C3C1C2" transform="translate(225,197)"/>
<path d="M0 0 C0.391875 0.639375 0.78375 1.27875 1.1875 1.9375 C3.38472296 4.43778819 4.75791433 4.64950425 8 5 C8 5.33 8 5.66 8 6 C5.69 6 3.38 6 1 6 C0.67 5.01 0.34 4.02 0 3 C-2.01508358 2.26676204 -2.01508358 2.26676204 -4 2 C-2.68 1.34 -1.36 0.68 0 0 Z " fill="#F1F1F1" transform="translate(259,189)"/>
<path d="M0 0 C0.33 0 0.66 0 1 0 C1.50423019 5.29441695 0.18923033 7.81413519 -3 12 C-4 10 -4 10 -3.22265625 7.6171875 C-2.83980469 6.71226562 -2.45695312 5.80734375 -2.0625 4.875 C-1.68222656 3.96492187 -1.30195312 3.05484375 -0.91015625 2.1171875 C-0.60980469 1.41851562 -0.30945313 0.71984375 0 0 Z " fill="#42ADD8" transform="translate(105,174)"/>
<path d="M0 0 C1.98 0 3.96 0 6 0 C6.33 1.65 6.66 3.3 7 5 C6.34 4.34 5.68 3.68 5 3 C3.68 3 2.36 3 1 3 C0.34 3.66 -0.32 4.32 -1 5 C-0.67 3.35 -0.34 1.7 0 0 Z " fill="#373536" transform="translate(403,164)"/>
<path d="M0 0 C0.33 0.66 0.66 1.32 1 2 C0.01 3.485 0.01 3.485 -1 5 C-1 4.34 -1 3.68 -1 3 C-2.65 3 -4.3 3 -6 3 C-6.33 2.34 -6.66 1.68 -7 1 C-4.53721199 -0.231394 -2.7204945 -0.07159196 0 0 Z " fill="#6E6C6D" transform="translate(342,195)"/>
<path d="M0 0 C1.32 0.33 2.64 0.66 4 1 C4 1.66 4 2.32 4 3 C6.31 3 8.62 3 11 3 C11 3.33 11 3.66 11 4 C7.7 4.33 4.4 4.66 1 5 C0.67 3.35 0.34 1.7 0 0 Z " fill="#DEDCDD" transform="translate(413,160)"/>
<path d="M0 0 C2.31 0.66 4.62 1.32 7 2 C6.67 2.99 6.34 3.98 6 5 C4.35 4.67 2.7 4.34 1 4 C0.67 2.68 0.34 1.36 0 0 Z " fill="#02AFDE" transform="translate(132,149)"/>
<path d="M0 0 C0.99 0 1.98 0 3 0 C2.6875 1.875 2.6875 1.875 2 4 C1.01 4.66 0.02 5.32 -1 6 C-1.66 5.34 -2.32 4.68 -3 4 C-1.6875 2 -1.6875 2 0 0 Z " fill="#D8F9FC" transform="translate(97,133)"/>
<path d="M0 0 C1.65 0 3.3 0 5 0 C4.2884375 1.051875 4.2884375 1.051875 3.5625 2.125 C1.91260143 5.16081337 1.39631536 7.59168786 1 11 C0.67 11 0.34 11 0 11 C0 7.37 0 3.74 0 0 Z " fill="#302F30" transform="translate(322,191)"/>
<path d="M0 0 C0.99 0.33 1.98 0.66 3 1 C1.02 5.455 1.02 5.455 -1 10 C-2.10191901 5.59232396 -1.58706842 4.1077065 0 0 Z " fill="#CFFBFE" transform="translate(104,171)"/>
<path d="M0 0 C3.125 0.375 3.125 0.375 6 1 C6 1.99 6 2.98 6 4 C3.36 3.34 0.72 2.68 -2 2 C-1.34 1.34 -0.68 0.68 0 0 Z " fill="#686667" transform="translate(345,163)"/>
<path d="M0 0 C1.65 0 3.3 0 5 0 C4.34 1.32 3.68 2.64 3 4 C1.68 4 0.36 4 -1 4 C-0.67 2.68 -0.34 1.36 0 0 Z " fill="#0BA3F5" transform="translate(134,154)"/>
<path d="M0 0 C0.66 0.33 1.32 0.66 2 1 C1.2884375 1.6496875 1.2884375 1.6496875 0.5625 2.3125 C-1.23686957 4.02309613 -1.23686957 4.02309613 -2 7 C-2.99 7.33 -3.98 7.66 -5 8 C-5.66 7.34 -6.32 6.68 -7 6 C-4.69 4.02 -2.38 2.04 0 0 Z " fill="#B8F0FB" transform="translate(105,126)"/>
<path d="M0 0 C0 0.99 0 1.98 0 3 C-2.31 2.67 -4.62 2.34 -7 2 C-7 1.34 -7 0.68 -7 0 C-3.86650268 -1.04449911 -3.01031744 -0.93423645 0 0 Z " fill="#373535" transform="translate(309,93)"/>
<path d="M0 0 C2.97 0.495 2.97 0.495 6 1 C5.67 1.99 5.34 2.98 5 4 C2.03 3.505 2.03 3.505 -1 3 C-0.67 2.01 -0.34 1.02 0 0 Z " fill="#D6D4D5" transform="translate(237,197)"/>
<path d="M0 0 C0.66 0 1.32 0 2 0 C2 1.32 2 2.64 2 4 C2.99 4.33 3.98 4.66 5 5 C4.01 5 3.02 5 2 5 C1.67 5.99 1.34 6.98 1 8 C-1.125 3.375 -1.125 3.375 0 0 Z " fill="#3E3D3D" transform="translate(362,187)"/>
<path d="M0 0 C0 0.99 0 1.98 0 3 C-2.31 3 -4.62 3 -7 3 C-7.33 2.34 -7.66 1.68 -8 1 C-5.29120665 -0.35439668 -2.99066732 -0.06501451 0 0 Z " fill="#545253" transform="translate(257,200)"/>
<path d="M0 0 C1.32 0 2.64 0 4 0 C3.67 1.32 3.34 2.64 3 4 C1.68 4 0.36 4 -1 4 C-0.67 2.68 -0.34 1.36 0 0 Z " fill="#CBC9CA" transform="translate(264,197)"/>
<path d="M0 0 C0.33 0 0.66 0 1 0 C1 1.98 1 3.96 1 6 C1.99 6 2.98 6 4 6 C4 6.99 4 7.98 4 9 C2.68 9 1.36 9 0 9 C0 6.03 0 3.06 0 0 Z " fill="#535152" transform="translate(385,194)"/>
<path d="M0 0 C1.32 0.66 2.64 1.32 4 2 C4 2.66 4 3.32 4 4 C2.02 4 0.04 4 -2 4 C-1.34 2.68 -0.68 1.36 0 0 Z " fill="#BCBABB" transform="translate(252,192)"/>
<path d="M0 0 C0.99 0 1.98 0 3 0 C2.34 3.3 1.68 6.6 1 10 C0.67 10 0.34 10 0 10 C0 6.7 0 3.4 0 0 Z " fill="#C5F6FE" transform="translate(99,182)"/>
<path d="M0 0 C0.33 0.66 0.66 1.32 1 2 C2.98 2 4.96 2 7 2 C7 2.99 7 3.98 7 5 C4.625 5.125 4.625 5.125 2 5 C1.34 4.34 0.68 3.68 0 3 C0 2.01 0 1.02 0 0 Z " fill="#CAC9C7" transform="translate(292,164)"/>
<path d="M0 0 C1.65 0 3.3 0 5 0 C5 0.99 5 1.98 5 3 C3.02 3 1.04 3 -1 3 C-0.67 2.01 -0.34 1.02 0 0 Z " fill="#5E5D5B" transform="translate(294,163)"/>
<path d="M0 0 C1.65 0 3.3 0 5 0 C2.38485683 2.12038635 -0.19637616 4.13091744 -3 6 C-2.67 4.68 -2.34 3.36 -2 2 C-1.34 2 -0.68 2 0 2 C0 1.34 0 0.68 0 0 Z " fill="#C0F0FD" transform="translate(123,150)"/>
<path d="M0 0 C0 0.66 0 1.32 0 2 C-1.32 2 -2.64 2 -4 2 C-4 2.99 -4 3.98 -4 5 C-5.65 5 -7.3 5 -9 5 C-4.32258065 0 -4.32258065 0 0 0 Z " fill="#C2EFFC" transform="translate(121,118)"/>
<path d="M0 0 C0.99 0.33 1.98 0.66 3 1 C2.34 1.66 1.68 2.32 1 3 C0.67 3.99 0.34 4.98 0 6 C-0.66 6 -1.32 6 -2 6 C-2.33 4.68 -2.66 3.36 -3 2 C-2.01 1.34 -1.02 0.68 0 0 Z " fill="#0AADF1" transform="translate(115,113)"/>
<path d="M0 0 C2.64 0 5.28 0 8 0 C8.33 0.66 8.66 1.32 9 2 C8.01 2.33 7.02 2.66 6 3 C6 2.34 6 1.68 6 1 C5.34 1.66 4.68 2.32 4 3 C1.875 2.625 1.875 2.625 0 2 C0 1.34 0 0.68 0 0 Z " fill="#53504F" transform="translate(296,89)"/>
<path d="M0 0 C2.475 0.495 2.475 0.495 5 1 C5 4.3 5 7.6 5 11 C4.67 11 4.34 11 4 11 C3.896875 9.741875 3.79375 8.48375 3.6875 7.1875 C3.35141192 4.39500343 3.19974124 3.25566879 1.4375 1 C0.963125 0.67 0.48875 0.34 0 0 Z " fill="#2A2A2A" transform="translate(300,191)"/>
<path d="M0 0 C1.65 0 3.3 0 5 0 C5.33 0.99 5.66 1.98 6 3 C4.02 3 2.04 3 0 3 C0 2.01 0 1.02 0 0 Z " fill="#BAB9BA" transform="translate(225,193)"/>
<path d="M0 0 C0.33 0 0.66 0 1 0 C1 2.31 1 4.62 1 7 C0.01 7.495 0.01 7.495 -1 8 C-1.625 5.6875 -1.625 5.6875 -2 3 C-1.34 2.01 -0.68 1.02 0 0 Z " fill="#28A1D6" transform="translate(102,185)"/>
<path d="M0 0 C0.33 0 0.66 0 1 0 C1.33 1.98 1.66 3.96 2 6 C2.99 6.33 3.98 6.66 5 7 C5 7.66 5 8.32 5 9 C3.35 8.67 1.7 8.34 0 8 C0 5.36 0 2.72 0 0 Z " fill="#434240" transform="translate(268,167)"/>
<path d="M0 0 C2.475 0.495 2.475 0.495 5 1 C5 4.3 5 7.6 5 11 C4.67 11 4.34 11 4 11 C3.896875 9.741875 3.79375 8.48375 3.6875 7.1875 C3.35141192 4.39500343 3.19974124 3.25566879 1.4375 1 C0.963125 0.67 0.48875 0.34 0 0 Z " fill="#2F2E2C" transform="translate(372,164)"/>
<path d="M0 0 C1.32 0 2.64 0 4 0 C3.34 2.97 2.68 5.94 2 9 C1.67 9 1.34 9 1 9 C0.67 6.03 0.34 3.06 0 0 Z " fill="#13A1D9" transform="translate(71,160)"/>
<path d="M0 0 C0.93423645 3.01031744 1.04449911 3.86650268 0 7 C-0.99 7 -1.98 7 -3 7 C-2.38722388 4.03824877 -1.74627478 2.61941217 0 0 Z " fill="#C7F4FA" transform="translate(84,148)"/>
<path d="M0 0 C0.99 0.33 1.98 0.66 3 1 C0.36 2.98 -2.28 4.96 -5 7 C-3.38262276 3.76524552 -2.52370777 2.29427979 0 0 Z " fill="#31A0C8" transform="translate(101,127)"/>
</svg>
